#N canvas 671 605 866 292 10;
#N canvas 120 120 375 395 hann-window 0;
#X obj 89 236 osc~;
#X obj 89 261 *~ -0.5;
#X obj 89 285 +~ 0.5;
#X obj 42 318 tabwrite~ \$0-hann;
#X obj 88 123 samplerate~;
#X obj 41 150 swap;
#X obj 41 174 /;
#X obj 41 86 t f b f;
#X msg 176 63 resize \$1;
#X obj 176 87 s \$0-hann;
#X msg 93 201 0;
#X obj 41 202 t f b;
#X obj 240 243 table \$0-hann;
#X obj 40 59 r \$0-window-size;
#X connect 0 0 1 0;
#X connect 1 0 2 0;
#X connect 2 0 3 0;
#X connect 4 0 5 1;
#X connect 5 0 6 0;
#X connect 5 1 6 1;
#X connect 6 0 11 0;
#X connect 7 0 5 0;
#X connect 7 1 4 0;
#X connect 7 2 8 0;
#X connect 8 0 9 0;
#X connect 10 0 0 1;
#X connect 11 0 0 0;
#X connect 11 1 3 0;
#X connect 11 1 10 0;
#X connect 13 0 7 0;
#X restore 247 194 pd hann-window;
#N canvas 639 241 755 762 playback 0;
#X obj 541 369 phasor~;
#X obj 175 338 wrap~;
#X obj 28 722 outlet~;
#X text 375 427 convert to samples;
#X obj 28 672 +~;
#X obj 28 86 samplerate~;
#X text 226 301 read location \, blocks;
#X text 515 8 OVERLAPPED \, WINDOWED SAMPLE PLAYBACK, f 22;
#N canvas 435 73 743 600 reader2 0;
#X obj 211 221 *~;
#X obj 294 171 samphold~;
#X obj 401 171 samphold~;
#X obj 206 171 samphold~;
#X obj 149 302 clip~ -0.5 0.5;
#X obj 149 325 cos~;
#X obj 350 229 +~;
#X obj 321 438 -~;
#X obj 310 465 *~;
#X obj 310 490 +~;
#X obj 289 514 *~;
#X obj 149 272 *~;
#X obj 185 273 clip~ 1 1000;
#X obj 149 347 +~ 1;
#X obj 147 171 -~ 0.5;
#X obj 321 402 tabread4~ \$0-nophase;
#X obj 546 437 tabread4~ \$0-nophase;
#X obj 44 45 inlet~;
#X obj 135 45 inlet~;
#X obj 245 45 inlet~;
#X obj 289 538 outlet~;
#X obj 428 44 inlet~;
#X obj 185 252 /~;
#X obj 320 278 +~;
#X obj 320 306 /~;
#X obj 320 330 wrap~;
#X obj 320 354 *~;
#X obj 546 328 /~;
#X obj 546 352 wrap~;
#X obj 546 376 *~;
#X obj 546 400 +~ 1;
#X obj 320 378 +~ 1;
#X obj 225 252 r \$0-hop;
#X obj 361 278 r \$0-hop;
#X obj 368 325 r \$0-buf-dur-samps;
#X obj 594 347 r \$0-buf-dur-samps;
#X connect 0 0 6 0;
#X connect 1 0 8 0;
#X connect 2 0 6 1;
#X connect 3 0 0 1;
#X connect 3 0 22 0;
#X connect 4 0 5 0;
#X connect 5 0 13 0;
#X connect 6 0 23 0;
#X connect 6 0 27 0;
#X connect 7 0 8 1;
#X connect 8 0 9 0;
#X connect 9 0 10 1;
#X connect 10 0 20 0;
#X connect 11 0 4 0;
#X connect 12 0 11 1;
#X connect 13 0 10 0;
#X connect 14 0 11 0;
#X connect 14 0 0 0;
#X connect 15 0 7 0;
#X connect 16 0 7 1;
#X connect 16 0 9 1;
#X connect 17 0 3 0;
#X connect 18 0 1 0;
#X connect 19 0 2 0;
#X connect 21 0 3 1;
#X connect 21 0 1 1;
#X connect 21 0 2 1;
#X connect 21 0 14 0;
#X connect 22 0 12 0;
#X connect 23 0 24 0;
#X connect 24 0 25 0;
#X connect 25 0 26 0;
#X connect 26 0 31 0;
#X connect 27 0 28 0;
#X connect 28 0 29 0;
#X connect 29 0 30 0;
#X connect 30 0 16 0;
#X connect 31 0 15 0;
#X connect 32 0 22 1;
#X connect 33 0 23 1;
#X connect 34 0 24 1;
#X connect 34 0 26 1;
#X connect 35 0 27 1;
#X connect 35 0 29 1;
#X restore 268 580 pd reader2;
#N canvas 80 90 742 651 reader1 0;
#X obj 55 63 inlet~;
#X obj 166 63 inlet~;
#X obj 286 63 inlet~;
#X obj 459 57 inlet~;
#X obj 223 585 outlet~;
#X obj 58 349 *~;
#X obj 93 318 clip~ 1 1000;
#X obj 375 228 *~;
#X obj 312 155 samphold~;
#X obj 487 160 samphold~;
#X obj 204 160 samphold~;
#X obj 58 374 clip~ -0.5 0.5;
#X obj 58 396 cos~;
#X obj 402 259 +~;
#X obj 368 448 -~;
#X obj 350 481 *~;
#X obj 350 541 +~;
#X obj 58 419 +~ 1;
#X obj 49 169 -~ 0.5;
#X obj 368 422 tabread4~ \$0-nophase;
#X obj 461 505 tabread4~ \$0-nophase;
#X text 120 159 grain size;
#X obj 223 532 *~;
#X text 115 403 window shaped by raised cos;
#X text 304 176 weight for next block, f 11;
#X obj 368 292 +~;
#X text 445 207 phasor scanner in samples -/+ the read location, f
26;
#X text 135 17 fractional part of loc (blocks), f 16;
#X text 22 16 grain size (samples), f 11;
#X obj 93 294 /~;
#X text 477 530 We're adding this block to what's new in the next block
\, fading it in using the fractional part of the read location, f
34;
#X text 412 449 << what's new in the next block?;
#X text 282 17 read loc (samples), f 14;
#X text 575 158 beginning of block;
#X text 518 294 << next block;
#X obj 368 396 +~ 1;
#X obj 461 475 +~ 1;
#X obj 368 316 /~;
#X obj 368 340 wrap~;
#X obj 368 364 *~;
#X obj 553 360 /~;
#X obj 553 384 wrap~;
#X obj 553 408 *~;
#X obj 448 296 r \$0-hop;
#X obj 416 335 r \$0-buf-dur-samps;
#X obj 601 379 r \$0-buf-dur-samps;
#X obj 133 294 r \$0-hop;
#X connect 0 0 10 0;
#X connect 1 0 8 0;
#X connect 2 0 9 0;
#X connect 3 0 9 1;
#X connect 3 0 8 1;
#X connect 3 0 10 1;
#X connect 3 0 18 0;
#X connect 5 0 11 0;
#X connect 6 0 5 1;
#X connect 7 0 13 0;
#X connect 8 0 15 0;
#X connect 9 0 13 1;
#X connect 10 0 7 1;
#X connect 10 0 29 0;
#X connect 11 0 12 0;
#X connect 12 0 17 0;
#X connect 13 0 25 0;
#X connect 13 0 40 0;
#X connect 14 0 15 1;
#X connect 15 0 16 0;
#X connect 16 0 22 1;
#X connect 17 0 22 0;
#X connect 18 0 5 0;
#X connect 18 0 7 0;
#X connect 19 0 14 0;
#X connect 20 0 14 1;
#X connect 20 0 16 1;
#X connect 22 0 4 0;
#X connect 25 0 37 0;
#X connect 29 0 6 0;
#X connect 35 0 19 0;
#X connect 36 0 20 0;
#X connect 37 0 38 0;
#X connect 38 0 39 0;
#X connect 39 0 35 0;
#X connect 40 0 41 0;
#X connect 41 0 42 0;
#X connect 42 0 36 0;
#X connect 43 0 25 1;
#X connect 44 0 37 1;
#X connect 44 0 39 1;
#X connect 45 0 40 1;
#X connect 45 0 42 1;
#X connect 46 0 29 1;
#X restore 28 580 pd reader1;
#X obj 335 538 wrap~;
#X obj 335 513 +~ 0.5;
#X text 228 340 fractional part of loc, f 23;
#X text 16 308 grain size in samples, f 11;
#X obj 267 427 *~;
#X obj 61 436 snapshot~;
#X obj 175 301 *~;
#X obj 175 221 phasor~;
#X obj 175 135 t b f;
#X msg 175 159 1;
#X obj 175 183 /;
#X floatatom 236 136 10 0 0 0 - - -, f 10;
#X msg 245 221 0;
#X obj 267 380 -~;
#X text 308 380 integer part of loc, f 20;
#X text 510 100 drop the pitch by an octave because we are creating
2 precisely phased copies that are a half cycle out of phase with each
other \, creating double the requested frequency., f 27;
#X text 189 243 could temporarily slow down time if we go back to normal
speed before record head catches up to playhead position;
#X obj 172 16 inlet~;
#X obj 28 354 *~;
#X obj 175 111 r \$0-buf-dur-sec;
#X obj 245 190 r \$0-buf-read-reset;
#X obj 193 277 r \$0-num-buf-blocks;
#X obj 317 427 r \$0-hop;
#X obj 61 460 s \$0-current-grain-size;
#X text 228 16 dummy inlet for ensuring DSP ordering;
#X obj 439 104 inlet~;
#X obj 439 133 -~ 12;
#X obj 439 156 mtof~;
#X obj 28 266 /~;
#X obj 68 26 loadbang;
#X obj 28 107 sig~;
#X obj 68 47 metro 500;
#X obj 586 302 /~ 440;
#X obj 586 279 mtof~;
#X obj 586 256 +~ 69;
#X obj 586 232 *~ 0.125;
#X obj 586 205 inlet~;
#X text 438 74 PITCH;
#X text 639 203 SPECSHIFT;
#X obj 28 696 hip~ 5;
#X obj 85 672 r \$0-hi-pass-cutoff;
#X obj 267 401 +~ 0.5;
#X text 316 399 go to middle of block;
#X connect 0 0 11 0;
#X connect 0 0 9 3;
#X connect 1 0 8 1;
#X connect 1 0 9 1;
#X connect 1 0 23 1;
#X connect 4 0 49 0;
#X connect 5 0 40 0;
#X connect 8 0 4 1;
#X connect 9 0 4 0;
#X connect 10 0 8 3;
#X connect 11 0 10 0;
#X connect 14 0 8 2;
#X connect 14 0 9 2;
#X connect 15 0 33 0;
#X connect 16 0 1 0;
#X connect 16 0 23 0;
#X connect 17 0 16 0;
#X connect 18 0 19 0;
#X connect 18 1 20 1;
#X connect 19 0 20 0;
#X connect 20 0 17 0;
#X connect 22 0 17 1;
#X connect 23 0 51 0;
#X connect 28 0 9 0;
#X connect 28 0 8 0;
#X connect 28 0 15 0;
#X connect 29 0 18 0;
#X connect 29 0 21 0;
#X connect 30 0 22 0;
#X connect 31 0 16 1;
#X connect 32 0 14 1;
#X connect 35 0 36 0;
#X connect 36 0 37 0;
#X connect 37 0 0 0;
#X connect 37 0 38 1;
#X connect 38 0 28 0;
#X connect 39 0 41 0;
#X connect 40 0 38 0;
#X connect 41 0 5 0;
#X connect 41 0 15 0;
#X connect 42 0 28 1;
#X connect 43 0 42 0;
#X connect 44 0 43 0;
#X connect 45 0 44 0;
#X connect 46 0 45 0;
#X connect 49 0 2 0;
#X connect 50 0 49 1;
#X connect 51 0 14 0;
#X restore 88 212 pd playback;
#N canvas 567 500 533 486 control-stuff 0;
#X obj 32 113 / 2;
#X text 34 16 analysis overlap was 2 so our block size is (window size)/2
, f 31;
#X obj 63 268 *;
#X obj 121 333 /;
#X obj 171 333 samplerate~;
#X obj 53 326 + 3;
#X obj 63 362 pack f f f \$0;
#X obj 63 292 t f f f b;
#X obj 293 39 t f b;
#X obj 293 63 /;
#X obj 293 87 * 1000;
#X obj 333 63 samplerate~;
#X obj 32 83 t f b;
#X msg 96 117 const 0;
#X obj 96 141 s \$0-nophase;
#X obj 32 59 r \$0-window-size;
#X obj 63 185 r \$0-hop;
#X obj 32 143 s \$0-hop;
#X obj 293 15 r \$0-current-grain-size;
#X obj 325 236 r \$0-buf-dur-sec;
#X obj 124 209 r \$0-num-buf-blocks;
#X msg 63 389 \; \$4-nophase-num-points-guarded \$1 \; \$4-nophase
resize \$1 \; \$4-buf-dur-sec \$3 \; \$4-buf-dur-samps \$2 \;;
#X obj 325 284 s \$0-buf-read-delay;
#X obj 293 111 s \$0-current-grain-size-ms;
#X obj 124 230 t b f;
#X obj 325 260 * 250;
#X connect 0 0 17 0;
#X connect 2 0 7 0;
#X connect 3 0 6 2;
#X connect 4 0 3 1;
#X connect 5 0 6 0;
#X connect 6 0 21 0;
#X connect 7 0 5 0;
#X connect 7 1 6 1;
#X connect 7 2 3 0;
#X connect 7 3 4 0;
#X connect 8 0 9 0;
#X connect 8 1 11 0;
#X connect 9 0 10 0;
#X connect 10 0 23 0;
#X connect 11 0 9 1;
#X connect 12 0 0 0;
#X connect 12 1 13 0;
#X connect 13 0 14 0;
#X connect 15 0 12 0;
#X connect 16 0 2 0;
#X connect 18 0 8 0;
#X connect 19 0 25 0;
#X connect 20 0 24 0;
#X connect 24 0 2 0;
#X connect 24 1 2 1;
#X connect 25 0 22 0;
#X restore 247 224 pd control-stuff;
#N canvas 593 167 450 300 buffer-writing 0;
#X obj 34 24 inlet~;
#X obj 34 258 outlet~;
#X obj 34 165 tabwrite~ \$0-nophase;
#X obj 224 215 table \$0-nophase;
#N canvas 645 78 838 597 record-commands 0;
#X obj 341 81 inlet;
#X obj 421 481 outlet;
#X obj 558 459 tabread \$0-nophase;
#X obj 566 240 r \$0-nophase-num-points-guarded;
#X floatatom 566 264 10 0 0 0 - - -, f 10;
#X obj 558 429 f;
#X obj 558 483 t f b;
#X obj 558 507 tabwrite \$0-nophase;
#X msg 622 483 0;
#X text 51 434 True signal is recorded from indices 1 through buf-dur-samps
\, (not 0 through buf-dur-samps MINUS 1), f 25;
#X text 51 514 So the guard points go at 0 \, buf-dur-samps PLUS 1
\, and buf-dur-samps PLUS 2, f 27;
#X obj 207 365 + 1;
#X obj 67 395 tabwrite \$0-nophase;
#X obj 67 355 tabread \$0-nophase;
#X msg 67 325 1;
#X obj 117 311 tabwrite \$0-nophase;
#X obj 117 271 tabread \$0-nophase;
#X obj 257 281 + 2;
#X msg 117 241 2;
#X floatatom 271 311 10 0 0 0 - - -, f 10;
#X floatatom 225 394 10 0 0 0 - - -, f 10;
#X obj 139 172 /;
#X obj 189 172 samplerate~;
#X obj 139 146 t f b;
#X obj 139 196 * 1000;
#X obj 67 171 delay;
#X obj 67 205 t b b;
#X floatatom 166 230 10 0 0 0 - - -, f 10;
#X text 517 80 The first copy point is a copy of the LAST true point
in the buffer. The final two copy points are copies of the FIRST TWO
true points in the buffer., f 21;
#X msg 421 447 start 1;
#X text 446 377 Write to indices 1 through buf-dur-samps (not 0 through
buf-dur-samps - 1), f 42;
#X text 13 23 Wait until half the buffer length before copying the
beginning guard points from the end of the buffer, f 15;
#X obj 139 105 / 2;
#X obj 341 107 t b b b;
#X obj 139 81 r \$0-buf-dur-samps;
#X obj 257 257 r \$0-buf-dur-samps;
#X obj 207 341 r \$0-buf-dur-samps;
#X obj 598 429 r \$0-buf-dur-samps;
#X connect 0 0 33 0;
#X connect 2 0 6 0;
#X connect 3 0 4 0;
#X connect 5 0 2 0;
#X connect 6 0 7 0;
#X connect 6 1 8 0;
#X connect 8 0 7 1;
#X connect 11 0 12 1;
#X connect 11 0 20 0;
#X connect 13 0 12 0;
#X connect 14 0 13 0;
#X connect 16 0 15 0;
#X connect 17 0 15 1;
#X connect 17 0 19 0;
#X connect 18 0 16 0;
#X connect 21 0 24 0;
#X connect 22 0 21 1;
#X connect 23 0 21 0;
#X connect 23 1 22 0;
#X connect 24 0 25 1;
#X connect 24 0 27 0;
#X connect 25 0 26 0;
#X connect 26 0 14 0;
#X connect 26 1 18 0;
#X connect 29 0 1 0;
#X connect 32 0 23 0;
#X connect 33 0 25 0;
#X connect 33 1 29 0;
#X connect 33 2 5 0;
#X connect 34 0 32 0;
#X connect 35 0 17 0;
#X connect 36 0 11 0;
#X connect 37 0 5 1;
#X restore 154 95 pd record-commands;
#X obj 154 24 inlet;
#X connect 0 0 2 0;
#X connect 4 0 2 0;
#X connect 5 0 4 0;
#X restore 28 122 pd buffer-writing;
#N canvas 521 95 825 659 fft-analysis 0;
#X obj 49 154 *~;
#X obj 17 154 *~;
#X obj 17 99 *~;
#X obj 17 71 inlet~;
#X obj 17 126 rfft~;
#X obj 17 228 *~;
#X obj 17 307 rifft~;
#X obj 53 100 tabreceive~ \$0-hann;
#X obj 347 160 samplerate~;
#X obj 338 126 bang~;
#X obj 347 185 t f b;
#X obj 263 78 block~;
#X obj 347 209 osc~;
#X msg 391 209 0;
#X obj 17 334 *~;
#X obj 53 335 tabreceive~ \$0-hann;
#X obj 17 364 outlet~;
#X msg 263 54 set \$1 2;
#X obj 338 437 outlet;
#X text 106 197 magnitude of FT;
#X text 393 124 control computations to do every frame;
#X text 24 385 output phase-aligned frames;
#X text 356 468 output a bang to start recording;
#X obj 17 201 sqrt~;
#X obj 17 282 /~;
#X text 442 160 This is just a shortcut to generate alternating +1/-1
values in a signal buffer since a critically sampled sinusoid starting
at phase 0 will have those values. It would also work to make an N-point
array with +1/-1 values in it., f 45;
#X obj 338 265 f;
#X obj 388 249 + 1;
#X obj 388 273 %;
#X obj 338 339 select 0;
#X floatatom 370 312 5 0 0 0 - - -, f 5;
#X text 51 453 We're dropping the imaginary part (no input to right
inlet of [rifft~]) \, since we're zeroing phase for every frame.,
f 32;
#X obj 263 32 r \$0-window-size;
#X obj 87 282 r \$0-window-size;
#X obj 438 273 r \$0-num-buf-blocks;
#X text 49 233 alternate every other sign to align partials to middle
of window, f 36;
#X obj 408 416 delay;
#X obj 408 440 s \$0-buf-read-reset;
#X obj 408 370 r \$0-buf-read-delay;
#X obj 408 391 f;
#X text 425 300 Start recording to the buffer \, and reset the read
[phasor~] after a delay so that it lags behind by the desired number
of ms., f 34;
#X connect 0 0 23 0;
#X connect 1 0 23 0;
#X connect 2 0 4 0;
#X connect 3 0 2 0;
#X connect 4 0 1 0;
#X connect 4 0 1 1;
#X connect 4 1 0 0;
#X connect 4 1 0 1;
#X connect 5 0 24 0;
#X connect 6 0 14 0;
#X connect 7 0 2 1;
#X connect 8 0 10 0;
#X connect 9 0 8 0;
#X connect 9 0 26 0;
#X connect 10 0 12 0;
#X connect 10 1 13 0;
#X connect 12 0 5 1;
#X connect 13 0 12 1;
#X connect 14 0 16 0;
#X connect 15 0 14 1;
#X connect 17 0 11 0;
#X connect 23 0 5 0;
#X connect 24 0 6 0;
#X connect 26 0 27 0;
#X connect 26 0 29 0;
#X connect 26 0 30 0;
#X connect 27 0 28 0;
#X connect 28 0 26 1;
#X connect 29 0 18 0;
#X connect 29 0 39 0;
#X connect 32 0 17 0;
#X connect 33 0 24 1;
#X connect 34 0 28 1;
#X connect 36 0 37 0;
#X connect 38 0 39 0;
#X connect 39 0 36 0;
#X restore 28 92 pd fft-analysis;
#X obj 28 40 inlet~;
#X obj 88 236 outlet~;
#X obj 415 38 inlet;
#N canvas 981 183 851 431 command-parsing 0;
#X obj 46 48 inlet;
#X obj 182 238 list split 1;
#X obj 182 270 t b a;
#X obj 194 370 s;
#X obj 254 332 symbol;
#X obj 166 306 list;
#X obj 166 327 list trim;
#X obj 254 308 makefilename \$0-%s;
#X floatatom 610 175 10 0 0 1 buf-read-delay #0-buf-read-delay -,
f 10;
#X floatatom 610 194 10 0 0 1 buf-dur-sec #0-buf-dur-sec -, f 10;
#X floatatom 610 214 10 0 0 1 buf-dur-samps #0-buf-dur-samps -, f
10;
#X floatatom 610 234 10 0 0 1 current-grain-size-ms #0-current-grain-size-ms
-, f 10;
#X obj 127 15 loadbang;
#X floatatom 440 174 10 0 0 1 window-size #0-window-size -, f 10;
#X floatatom 440 194 10 0 0 1 hop #0-hop -, f 10;
#X floatatom 440 214 10 0 0 1 num-buf-blocks #0-num-buf-blocks -,
f 10;
#X floatatom 440 234 10 0 0 1 hi-pass-cutoff #0-hi-pass-cutoff -,
f 10;
#X obj 46 109 route window-size;
#X obj 46 242 s \$0-window-size;
#X msg 260 102 tune~: requested window size not allowed;
#X obj 260 123 print -n;
#X obj 260 83 t b;
#X obj 46 130 select 256 512 1024 2048 4096;
#X msg 236 161 4096;
#X msg 186 161 2048;
#X msg 136 161 1024;
#X msg 86 161 512;
#X msg 46 161 256;
#X msg 127 55 num-buf-blocks 9 \, window-size 1024 \, hi-pass-cutoff
10;
#X connect 0 0 17 0;
#X connect 1 0 2 0;
#X connect 1 1 5 1;
#X connect 2 0 5 0;
#X connect 2 1 7 0;
#X connect 4 0 3 1;
#X connect 5 0 6 0;
#X connect 6 0 3 0;
#X connect 7 0 4 0;
#X connect 12 0 28 0;
#X connect 17 0 22 0;
#X connect 17 1 1 0;
#X connect 19 0 20 0;
#X connect 21 0 19 0;
#X connect 22 0 27 0;
#X connect 22 1 26 0;
#X connect 22 2 25 0;
#X connect 22 3 24 0;
#X connect 22 4 23 0;
#X connect 22 5 21 0;
#X connect 23 0 18 0;
#X connect 24 0 18 0;
#X connect 25 0 18 0;
#X connect 26 0 18 0;
#X connect 27 0 18 0;
#X connect 28 0 17 0;
#X coords 0 -1 1 1 400 120 1 430 140;
#X restore 415 58 pd command-parsing;
#X obj 188 40 inlet~;
#X obj 308 40 inlet~;
#X text 526 234 William Brent \, March 2018;
#X text 526 214 [tune~] version 0.0.3;
#X connect 1 0 6 0;
#X connect 3 0 1 0;
#X connect 4 0 3 0;
#X connect 4 1 3 1;
#X connect 5 0 4 0;
#X connect 7 0 8 0;
#X connect 9 0 1 1;
#X connect 10 0 1 2;
