#N canvas 268 321 898 359 12;
#X obj 56 61 inlet~;
#X obj 56 265 outlet~;
#X obj 385 61 inlet;
#N canvas 189 137 1042 754 command-parsing 0;
#X obj 46 48 inlet;
#X floatatom 790 133 10 0 0 1 buf-read-delay \$0-tune-tilde-buf-read-delay - 0;
#X floatatom 790 162 10 0 0 1 buf-dur-sec \$0-tune-tilde-buf-dur-sec - 0;
#X floatatom 790 192 10 0 0 1 buf-dur-samps \$0-tune-tilde-buf-dur-samps - 0;
#X obj 127 15 loadbang;
#X floatatom 590 132 10 0 0 1 window-size \$0-tune-tilde-window-size - 0;
#X floatatom 590 162 10 0 0 1 hop \$0-tune-tilde-hop - 0;
#X floatatom 590 192 10 0 0 1 num-buf-blocks \$0-tune-tilde-num-buf-blocks - 0;
#X floatatom 590 222 10 0 0 1 hi-pass-cutoff \$0-tune-tilde-hi-pass-cutoff - 0;
#X floatatom 790 252 10 0 0 1 spec-shift-ramp \$0-tune-tilde-spec-shift-ramp-time - 0;
#X floatatom 590 252 10 0 0 1 pitch-ramp \$0-tune-tilde-pitch-ramp-time - 0;
#N canvas 235 199 726 383 window-size 0;
#X msg 259 178 tune~: requested window size not allowed;
#X obj 259 199 print -n;
#X obj 259 157 t b;
#X obj 39 89 select 256 512 1024 2048 4096;
#X msg 229 250 4096;
#X msg 179 250 2048;
#X msg 129 250 1024;
#X msg 79 250 512;
#X msg 39 250 256;
#X obj 39 29 inlet;
#X text 272 37 need to special-case this one since we only want to allow certain window sizes, f 32;
#X obj 39 331 s \$0-tune-tilde-window-size;
#X connect 0 0 1 0;
#X connect 2 0 0 0;
#X connect 3 0 8 0;
#X connect 3 1 7 0;
#X connect 3 2 6 0;
#X connect 3 3 5 0;
#X connect 3 4 4 0;
#X connect 3 5 2 0;
#X connect 4 0 11 0;
#X connect 5 0 11 0;
#X connect 6 0 11 0;
#X connect 7 0 11 0;
#X connect 8 0 11 0;
#X connect 9 0 3 0;
#X restore 496 436 pd window-size;
#N canvas 514 579 677 262 global-settings 0;
#X obj 60 78 list split 1;
#X obj 60 110 t b a;
#X obj 72 210 s;
#X obj 132 172 symbol;
#X obj 44 146 list;
#X obj 44 167 list trim;
#X obj 60 38 inlet;
#X text 194 36 if there's no polyphonic voice number involved \, we can just prepend a \$0- in front of the message name and transmit globally.;
#X obj 132 148 makefilename \$0-tune-tilde-%s;
#X connect 0 0 1 0;
#X connect 0 1 4 1;
#X connect 1 0 4 0;
#X connect 1 1 8 0;
#X connect 3 0 2 1;
#X connect 4 0 5 0;
#X connect 5 0 2 0;
#X connect 6 0 0 0;
#X connect 8 0 3 0;
#X restore 666 346 pd global-settings;
#N canvas 476 648 339 245 pitch 0;
#X obj 37 37 inlet;
#X obj 37 166 t b a;
#X obj 37 189 f;
#X obj 37 212 s;
#X obj 37 100 unpack f f;
#X obj 37 143 makefilename \$0-%i-tune-tilde-pitch;
#X connect 0 0 4 0;
#X connect 1 0 2 0;
#X connect 1 1 3 1;
#X connect 2 0 3 0;
#X connect 4 0 5 0;
#X connect 4 1 2 1;
#X connect 5 0 1 0;
#X restore 46 706 pd pitch;
#N canvas 523 611 318 293 amp 0;
#X obj 37 37 inlet;
#X obj 37 166 t b a;
#X obj 37 189 f;
#X obj 37 212 s;
#X obj 37 100 unpack f f;
#X obj 108 194 swap;
#X obj 108 217 tabwrite \$0-tune-tilde-amps;
#X obj 37 143 makefilename \$0-%i-tune-tilde-amp;
#X connect 0 0 4 0;
#X connect 1 0 2 0;
#X connect 1 1 3 1;
#X connect 2 0 3 0;
#X connect 4 0 5 0;
#X connect 4 0 7 0;
#X connect 4 1 2 1;
#X connect 4 1 5 1;
#X connect 5 0 6 0;
#X connect 5 1 6 1;
#X connect 7 0 1 0;
#X restore 146 646 pd amp;
#N canvas 476 708 352 254 pan 0;
#X obj 37 37 inlet;
#X obj 37 166 t b a;
#X obj 37 189 f;
#X obj 37 212 s;
#X obj 37 100 unpack f f;
#X obj 37 143 makefilename \$0-%i-tune-tilde-pan-pos;
#X connect 0 0 4 0;
#X connect 1 0 2 0;
#X connect 1 1 3 1;
#X connect 2 0 3 0;
#X connect 4 0 5 0;
#X connect 4 1 2 1;
#X connect 5 0 1 0;
#X restore 196 616 pd pan;
#N canvas 476 678 363 256 vib-speed 0;
#X obj 37 37 inlet;
#X obj 37 166 t b a;
#X obj 37 189 f;
#X obj 37 212 s;
#X obj 37 100 unpack f f;
#X obj 37 143 makefilename \$0-%i-tune-tilde-vib-speed;
#X connect 0 0 4 0;
#X connect 1 0 2 0;
#X connect 1 1 3 1;
#X connect 2 0 3 0;
#X connect 4 0 5 0;
#X connect 4 1 2 1;
#X connect 5 0 1 0;
#X restore 246 586 pd vib-speed;
#N canvas 476 708 388 245 vib-depth 0;
#X obj 37 37 inlet;
#X obj 37 166 t b a;
#X obj 37 189 f;
#X obj 37 212 s;
#X obj 37 100 unpack f f;
#X obj 37 143 makefilename \$0-%i-tune-tilde-vib-depth;
#X connect 0 0 4 0;
#X connect 1 0 2 0;
#X connect 1 1 3 1;
#X connect 2 0 3 0;
#X connect 4 0 5 0;
#X connect 4 1 2 1;
#X connect 5 0 1 0;
#X restore 296 556 pd vib-depth;
#N canvas 476 709 377 245 spec-shift 0;
#X obj 37 37 inlet;
#X obj 37 166 t b a;
#X obj 37 189 f;
#X obj 37 212 s;
#X obj 37 100 unpack f f;
#X obj 37 143 makefilename \$0-%i-tune-tilde-spec-shift;
#X connect 0 0 4 0;
#X connect 1 0 2 0;
#X connect 1 1 3 1;
#X connect 2 0 3 0;
#X connect 4 0 5 0;
#X connect 4 1 2 1;
#X connect 5 0 1 0;
#X restore 96 676 pd spec-shift;
#X msg 127 55 window-size 1024 \, num-buf-blocks 9 \, hi-pass-cutoff 10 \, pitch-ramp-time 10 \, spec-shift-ramp-time 50;
#N canvas 1109 130 484 398 mute-all 0;
#X obj 46 164 until;
#X obj 46 217 f;
#X obj 76 220 + 1;
#X msg 73 186 0;
#X obj 46 296 pack f f \$0;
#X obj 46 240 t f f;
#X obj 256 164 until;
#X obj 256 217 f;
#X obj 286 220 + 1;
#X msg 283 186 0;
#X obj 256 296 pack 0 f \$0;
#X obj 256 240 t b f;
#X obj 46 52 select 0 1;
#X obj 46 104 f \$1;
#X obj 256 104 f \$1;
#X obj 46 127 t f b;
#X obj 256 127 t f b;
#X obj 46 19 r \$0-tune-tilde-mute-all;
#X msg 46 319 \; \$3-\$2-tune-tilde-amp \$1 \;;
#X msg 256 319 \; \$3-\$2-tune-tilde-amp \$1 \;;
#X obj 46 263 tabread \$0-tune-tilde-amps;
#X connect 0 0 1 0;
#X connect 1 0 2 0;
#X connect 1 0 5 0;
#X connect 2 0 1 1;
#X connect 3 0 1 1;
#X connect 4 0 18 0;
#X connect 5 0 20 0;
#X connect 5 1 4 1;
#X connect 6 0 7 0;
#X connect 7 0 8 0;
#X connect 7 0 11 0;
#X connect 8 0 7 1;
#X connect 9 0 7 1;
#X connect 10 0 19 0;
#X connect 11 0 10 0;
#X connect 11 1 10 1;
#X connect 12 0 13 0;
#X connect 12 1 14 0;
#X connect 13 0 15 0;
#X connect 14 0 16 0;
#X connect 15 0 0 0;
#X connect 15 1 3 0;
#X connect 16 0 6 0;
#X connect 16 1 9 0;
#X connect 17 0 12 0;
#X connect 20 0 4 0;
#X restore 716 636 pd mute-all;
#N canvas 1006 232 547 205 amp-storage 0;
#X obj 63 33 loadbang;
#X obj 63 63 pack \$1 \$0;
#X msg 63 93 \; \$2-tune-tilde-amps resize \$1 \;;
#X obj 290 59 array define \$0-tune-tilde-amps;
#X connect 0 0 1 0;
#X connect 1 0 2 0;
#X restore 716 606 pd amp-storage;
#N canvas 1126 146 355 380 unity-all 0;
#X obj 47 148 until;
#X obj 47 201 f;
#X obj 77 204 + 1;
#X msg 74 170 0;
#X obj 47 224 t b f;
#X obj 47 88 f \$1;
#X obj 47 111 t f b;
#X obj 47 280 pack 100 f \$0;
#X obj 47 23 r \$0-tune-tilde-unity-all;
#X msg 47 303 \; \$3-\$2-tune-tilde-amp \$1 \; \$3-tune-tilde-amps \$2 \$1 \;;
#X connect 0 0 1 0;
#X connect 1 0 2 0;
#X connect 1 0 4 0;
#X connect 2 0 1 1;
#X connect 3 0 1 1;
#X connect 4 0 7 0;
#X connect 4 1 7 1;
#X connect 5 0 6 0;
#X connect 6 0 0 0;
#X connect 6 1 3 0;
#X connect 7 0 9 0;
#X connect 8 0 5 0;
#X restore 716 666 pd unity-all;
#N canvas 514 335 466 293 mute 0;
#X obj 37 37 inlet;
#X obj 37 60 swap;
#X obj 37 83 select 0 1;
#X obj 37 156 f;
#X obj 37 202 pack f f \$0;
#X obj 257 202 pack 0 f \$0;
#X msg 37 225 \; \$3-\$2-tune-tilde-amp \$1 \;;
#X msg 257 225 \; \$3-\$2-tune-tilde-amp \$1 \;;
#X obj 37 179 tabread \$0-tune-tilde-amps;
#X connect 0 0 1 0;
#X connect 1 0 2 0;
#X connect 1 1 3 1;
#X connect 1 1 4 1;
#X connect 1 1 5 1;
#X connect 2 0 3 0;
#X connect 2 1 5 0;
#X connect 3 0 8 0;
#X connect 4 0 6 0;
#X connect 5 0 7 0;
#X connect 8 0 4 0;
#X restore 396 496 pd mute;
#N canvas 457 160 473 547 solo 0;
#X obj 37 37 inlet;
#X obj 37 309 until;
#X obj 37 362 f;
#X obj 67 365 + 1;
#X msg 64 331 0;
#X obj 37 441 pack f f \$0;
#X obj 37 385 t f f;
#X obj 237 259 until;
#X obj 237 312 f;
#X obj 267 315 + 1;
#X msg 264 281 0;
#X obj 237 441 pack 0 f \$0;
#X obj 237 385 t b f;
#X obj 37 117 select 0 1;
#X obj 37 249 f \$1;
#X obj 237 199 f \$1;
#X obj 37 272 t f b;
#X obj 237 222 t f b;
#X obj 37 60 swap;
#X obj 237 355 select;
#X msg 37 464 \; \$3-\$2-tune-tilde-amp \$1 \;;
#X msg 237 464 \; \$3-\$2-tune-tilde-amp \$1 \;;
#X obj 37 408 tabread \$0-tune-tilde-amps;
#X connect 0 0 18 0;
#X connect 1 0 2 0;
#X connect 2 0 3 0;
#X connect 2 0 6 0;
#X connect 3 0 2 1;
#X connect 4 0 2 1;
#X connect 5 0 20 0;
#X connect 6 0 22 0;
#X connect 6 1 5 1;
#X connect 7 0 8 0;
#X connect 8 0 9 0;
#X connect 8 0 19 0;
#X connect 9 0 8 1;
#X connect 10 0 8 1;
#X connect 11 0 21 0;
#X connect 12 0 11 0;
#X connect 12 1 11 1;
#X connect 13 0 14 0;
#X connect 13 1 15 0;
#X connect 14 0 16 0;
#X connect 15 0 17 0;
#X connect 16 0 1 0;
#X connect 16 1 4 0;
#X connect 17 0 7 0;
#X connect 17 1 10 0;
#X connect 18 0 13 0;
#X connect 18 1 19 1;
#X connect 19 1 12 0;
#X connect 22 0 5 0;
#X restore 446 466 pd solo;
#N canvas 179 204 474 267 vbap-define-loudspeakers 0;
#X obj 37 37 inlet;
#X obj 37 111 list prepend define_loudspeakers;
#X obj 37 135 list trim;
#X obj 37 165 s \$0-tune-tilde-define-loudspeakers;
#X text 35 198 this is sent globally to all instances of tuneReader~.pd;
#X connect 0 0 1 0;
#X connect 1 0 2 0;
#X connect 2 0 3 0;
#X restore 546 406 pd vbap-define-loudspeakers;
#N canvas 110 348 464 221 vbap-spread 0;
#X obj 37 37 inlet;
#X obj 37 115 s \$0-tune-tilde-pan-spread;
#X text 35 148 this is sent globally to all instances of tuneReader~.pd;
#X connect 0 0 1 0;
#X restore 616 376 pd vbap-spread;
#X obj 46 189 route pitch spec-shift amp pan vib-speed vib-depth delay mute solo window-size vbap-define-loudspeakers vbap-spread;
#N canvas 476 708 324 245 delay 0;
#X obj 37 37 inlet;
#X obj 37 166 t b a;
#X obj 37 189 f;
#X obj 37 212 s;
#X obj 37 100 unpack f f;
#X obj 37 143 makefilename \$0-%i-tune-tilde-delay;
#X connect 0 0 4 0;
#X connect 1 0 2 0;
#X connect 1 1 3 1;
#X connect 2 0 3 0;
#X connect 4 0 5 0;
#X connect 4 1 2 1;
#X connect 5 0 1 0;
#X restore 346 526 pd delay;
#X connect 0 0 27 0;
#X connect 4 0 19 0;
#X connect 19 0 27 0;
#X connect 27 0 13 0;
#X connect 27 1 18 0;
#X connect 27 2 14 0;
#X connect 27 3 15 0;
#X connect 27 4 16 0;
#X connect 27 5 17 0;
#X connect 27 6 28 0;
#X connect 27 7 23 0;
#X connect 27 8 24 0;
#X connect 27 9 11 0;
#X connect 27 10 25 0;
#X connect 27 11 26 0;
#X connect 27 12 12 0;
#X coords 0 -1 1 1 420 180 1 580 100;
#X restore 385 111 pd command-parsing;
#X obj 56 131 ./lib/tuneBasher~ \$0;
#X text 521 50 [tune~] version 0.2.1;
#X text 521 70 William Brent \, June 2024;
#X obj 56 185 clone ./lib/tuneReader~ \$1 \$2 \$0;
#X text 150 65 \$2: number of output channels;
#X text 150 45 \$1: number of voices;
#X connect 0 0 4 0;
#X connect 2 0 3 0;
#X connect 4 0 7 0;
#X connect 7 0 1 0;
