#N canvas 268 321 898 359 12;
#X obj 56 61 inlet~;
#X obj 56 265 outlet~;
#X obj 385 61 inlet;
#N canvas 189 137 1042 661 command-parsing 0;
#X obj 46 48 inlet;
#X floatatom 790 133 10 0 0 1 buf-read-delay \$0-buf-read-delay - 0;
#X floatatom 790 162 10 0 0 1 buf-dur-sec \$0-buf-dur-sec - 0;
#X floatatom 790 192 10 0 0 1 buf-dur-samps \$0-buf-dur-samps - 0;
#X obj 127 15 loadbang;
#X floatatom 590 132 10 0 0 1 window-size \$0-window-size - 0;
#X floatatom 590 162 10 0 0 1 hop \$0-hop - 0;
#X floatatom 590 192 10 0 0 1 num-buf-blocks \$0-num-buf-blocks - 0;
#X floatatom 590 222 10 0 0 1 hi-pass-cutoff \$0-hi-pass-cutoff - 0;
#X floatatom 790 252 10 0 0 1 spec-shift-ramp \$0-spec-shift-ramp-time - 0;
#X floatatom 590 252 10 0 0 1 pitch-ramp \$0-pitch-ramp-time - 0;
#N canvas 235 199 726 383 window-size 0;
#X msg 259 178 tune~: requested window size not allowed;
#X obj 259 199 print -n;
#X obj 259 157 t b;
#X obj 39 89 select 256 512 1024 2048 4096;
#X msg 229 250 4096;
#X msg 179 250 2048;
#X msg 129 250 1024;
#X msg 79 250 512;
#X msg 39 250 256;
#X obj 39 331 s \$0-window-size;
#X obj 39 29 inlet;
#X text 272 37 need to special-case this one since we only want to allow certain window sizes, f 32;
#X connect 0 0 1 0;
#X connect 2 0 0 0;
#X connect 3 0 8 0;
#X connect 3 1 7 0;
#X connect 3 2 6 0;
#X connect 3 3 5 0;
#X connect 3 4 4 0;
#X connect 3 5 2 0;
#X connect 4 0 9 0;
#X connect 5 0 9 0;
#X connect 6 0 9 0;
#X connect 7 0 9 0;
#X connect 8 0 9 0;
#X connect 10 0 3 0;
#X restore 446 356 pd window-size;
#N canvas 514 579 677 262 global-settings 0;
#X obj 60 78 list split 1;
#X obj 60 110 t b a;
#X obj 72 210 s;
#X obj 132 172 symbol;
#X obj 44 146 list;
#X obj 44 167 list trim;
#X obj 132 148 makefilename \$0-%s;
#X obj 60 38 inlet;
#X text 194 36 if there's no polyphonic voice number involved \, we can just prepend a \$0- in front of the message name and transmit globally.;
#X connect 0 0 1 0;
#X connect 0 1 4 1;
#X connect 1 0 4 0;
#X connect 1 1 6 0;
#X connect 3 0 2 1;
#X connect 4 0 5 0;
#X connect 5 0 2 0;
#X connect 6 0 3 0;
#X connect 7 0 0 0;
#X restore 496 326 pd global-settings;
#N canvas 476 648 288 245 pitch 0;
#X obj 37 37 inlet;
#X obj 37 143 makefilename \$0-%i-pitch;
#X obj 37 166 t b a;
#X obj 37 189 f;
#X obj 37 212 s;
#X obj 37 100 unpack f f;
#X connect 0 0 5 0;
#X connect 1 0 2 0;
#X connect 2 0 3 0;
#X connect 2 1 4 1;
#X connect 3 0 4 0;
#X connect 5 0 1 0;
#X connect 5 1 3 1;
#X restore 46 596 pd pitch;
#N canvas 523 611 318 293 amp 0;
#X obj 37 37 inlet;
#X obj 37 166 t b a;
#X obj 37 189 f;
#X obj 37 212 s;
#X obj 37 143 makefilename \$0-%i-amp;
#X obj 37 100 unpack f f;
#X obj 108 194 swap;
#X obj 108 217 tabwrite \$0-amps;
#X connect 0 0 5 0;
#X connect 1 0 2 0;
#X connect 1 1 3 1;
#X connect 2 0 3 0;
#X connect 4 0 1 0;
#X connect 5 0 4 0;
#X connect 5 0 6 0;
#X connect 5 1 2 1;
#X connect 5 1 6 1;
#X connect 6 0 7 0;
#X connect 6 1 7 1;
#X restore 146 536 pd amp;
#N canvas 476 708 288 245 pan 0;
#X obj 37 37 inlet;
#X obj 37 166 t b a;
#X obj 37 189 f;
#X obj 37 212 s;
#X obj 37 143 makefilename \$0-%i-pan;
#X obj 37 100 unpack f f;
#X connect 0 0 5 0;
#X connect 1 0 2 0;
#X connect 1 1 3 1;
#X connect 2 0 3 0;
#X connect 4 0 1 0;
#X connect 5 0 4 0;
#X connect 5 1 2 1;
#X restore 196 506 pd pan;
#N canvas 476 678 291 256 vib-speed 0;
#X obj 37 37 inlet;
#X obj 37 166 t b a;
#X obj 37 189 f;
#X obj 37 212 s;
#X obj 37 143 makefilename \$0-%i-vib-speed;
#X obj 37 100 unpack f f;
#X connect 0 0 5 0;
#X connect 1 0 2 0;
#X connect 1 1 3 1;
#X connect 2 0 3 0;
#X connect 4 0 1 0;
#X connect 5 0 4 0;
#X connect 5 1 2 1;
#X restore 246 476 pd vib-speed;
#N canvas 476 708 288 245 vib-depth 0;
#X obj 37 37 inlet;
#X obj 37 166 t b a;
#X obj 37 189 f;
#X obj 37 212 s;
#X obj 37 143 makefilename \$0-%i-vib-depth;
#X obj 37 100 unpack f f;
#X connect 0 0 5 0;
#X connect 1 0 2 0;
#X connect 1 1 3 1;
#X connect 2 0 3 0;
#X connect 4 0 1 0;
#X connect 5 0 4 0;
#X connect 5 1 2 1;
#X restore 296 446 pd vib-depth;
#N canvas 476 709 288 245 spec-shift 0;
#X obj 37 37 inlet;
#X obj 37 166 t b a;
#X obj 37 189 f;
#X obj 37 212 s;
#X obj 37 100 unpack f f;
#X obj 37 143 makefilename \$0-%i-spec-shift;
#X connect 0 0 4 0;
#X connect 1 0 2 0;
#X connect 1 1 3 1;
#X connect 2 0 3 0;
#X connect 4 0 5 0;
#X connect 4 1 2 1;
#X connect 5 0 1 0;
#X restore 96 566 pd spec-shift;
#X msg 127 55 window-size 1024 \, num-buf-blocks 9 \, hi-pass-cutoff 10 \, pitch-ramp-time 10 \, spec-shift-ramp-time 50;
#N canvas 1109 130 403 398 mute-all 0;
#X obj 46 19 r \$0-mute-all;
#X obj 46 164 until;
#X obj 46 217 f;
#X obj 76 220 + 1;
#X msg 73 186 0;
#X obj 46 296 pack f f \$0;
#X msg 46 319 \; \$3-\$2-amp \$1 \;;
#X obj 46 240 t f f;
#X obj 46 263 tabread \$0-amps;
#X obj 226 164 until;
#X obj 226 217 f;
#X obj 256 220 + 1;
#X msg 253 186 0;
#X msg 226 319 \; \$3-\$2-amp \$1 \;;
#X obj 226 296 pack 0 f \$0;
#X obj 226 240 t b f;
#X obj 46 52 select 0 1;
#X obj 46 104 f \$1;
#X obj 226 104 f \$1;
#X obj 46 127 t f b;
#X obj 226 127 t f b;
#X connect 0 0 16 0;
#X connect 1 0 2 0;
#X connect 2 0 3 0;
#X connect 2 0 7 0;
#X connect 3 0 2 1;
#X connect 4 0 2 1;
#X connect 5 0 6 0;
#X connect 7 0 8 0;
#X connect 7 1 5 1;
#X connect 8 0 5 0;
#X connect 9 0 10 0;
#X connect 10 0 11 0;
#X connect 10 0 15 0;
#X connect 11 0 10 1;
#X connect 12 0 10 1;
#X connect 14 0 13 0;
#X connect 15 0 14 0;
#X connect 15 1 14 1;
#X connect 16 0 17 0;
#X connect 16 1 18 0;
#X connect 17 0 19 0;
#X connect 18 0 20 0;
#X connect 19 0 1 0;
#X connect 19 1 4 0;
#X connect 20 0 9 0;
#X connect 20 1 12 0;
#X restore 716 426 pd mute-all;
#N canvas 1006 232 461 179 amp-storage 0;
#X obj 290 59 table \$0-amps;
#X obj 63 33 loadbang;
#X msg 63 93 \; \$2-amps resize \$1 \;;
#X obj 63 63 pack \$1 \$0;
#X connect 1 0 3 0;
#X connect 3 0 2 0;
#X restore 716 396 pd amp-storage;
#N canvas 1126 146 355 380 unity-all 0;
#X obj 47 148 until;
#X obj 47 201 f;
#X obj 77 204 + 1;
#X msg 74 170 0;
#X obj 47 224 t b f;
#X obj 47 88 f \$1;
#X obj 47 111 t f b;
#X obj 47 23 r \$0-unity-all;
#X obj 67 61 bng 15 250 50 0 empty empty empty 17 7 0 10 #fcfcfc #000000 #000000;
#X obj 47 280 pack 100 f \$0;
#X msg 47 303 \; \$3-\$2-amp \$1 \; \$3-amps \$2 \$1 \;;
#X connect 0 0 1 0;
#X connect 1 0 2 0;
#X connect 1 0 4 0;
#X connect 2 0 1 1;
#X connect 3 0 1 1;
#X connect 4 0 9 0;
#X connect 4 1 9 1;
#X connect 5 0 6 0;
#X connect 6 0 0 0;
#X connect 6 1 3 0;
#X connect 7 0 8 0;
#X connect 7 0 5 0;
#X connect 9 0 10 0;
#X restore 716 456 pd unity-all;
#X obj 46 129 route pitch spec-shift amp pan vib-speed vib-depth mute solo window-size;
#N canvas 514 335 375 293 mute 0;
#X obj 37 37 inlet;
#X obj 37 60 swap;
#X obj 37 83 select 0 1;
#X obj 37 156 f;
#X obj 37 179 tabread \$0-amps;
#X msg 37 225 \; \$3-\$2-amp \$1 \;;
#X obj 37 202 pack f f \$0;
#X msg 177 225 \; \$3-\$2-amp \$1 \;;
#X obj 177 202 pack 0 f \$0;
#X connect 0 0 1 0;
#X connect 1 0 2 0;
#X connect 1 1 3 1;
#X connect 1 1 6 1;
#X connect 1 1 8 1;
#X connect 2 0 3 0;
#X connect 2 1 8 0;
#X connect 3 0 4 0;
#X connect 4 0 6 0;
#X connect 6 0 5 0;
#X connect 8 0 7 0;
#X restore 346 416 pd mute;
#N canvas 457 160 412 547 solo 0;
#X obj 37 37 inlet;
#X obj 37 309 until;
#X obj 37 362 f;
#X obj 67 365 + 1;
#X msg 64 331 0;
#X obj 37 441 pack f f \$0;
#X msg 37 464 \; \$3-\$2-amp \$1 \;;
#X obj 37 385 t f f;
#X obj 37 408 tabread \$0-amps;
#X obj 217 259 until;
#X obj 217 312 f;
#X obj 247 315 + 1;
#X msg 244 281 0;
#X msg 217 464 \; \$3-\$2-amp \$1 \;;
#X obj 217 441 pack 0 f \$0;
#X obj 217 385 t b f;
#X obj 37 117 select 0 1;
#X obj 37 249 f \$1;
#X obj 217 199 f \$1;
#X obj 37 272 t f b;
#X obj 217 222 t f b;
#X obj 37 60 swap;
#X obj 217 355 select;
#X connect 0 0 21 0;
#X connect 1 0 2 0;
#X connect 2 0 3 0;
#X connect 2 0 7 0;
#X connect 3 0 2 1;
#X connect 4 0 2 1;
#X connect 5 0 6 0;
#X connect 7 0 8 0;
#X connect 7 1 5 1;
#X connect 8 0 5 0;
#X connect 9 0 10 0;
#X connect 10 0 11 0;
#X connect 10 0 22 0;
#X connect 11 0 10 1;
#X connect 12 0 10 1;
#X connect 14 0 13 0;
#X connect 15 0 14 0;
#X connect 15 1 14 1;
#X connect 16 0 17 0;
#X connect 16 1 18 0;
#X connect 17 0 19 0;
#X connect 18 0 20 0;
#X connect 19 0 1 0;
#X connect 19 1 4 0;
#X connect 20 0 9 0;
#X connect 20 1 12 0;
#X connect 21 0 16 0;
#X connect 21 1 22 1;
#X connect 22 1 15 0;
#X restore 396 386 pd solo;
#X connect 0 0 23 0;
#X connect 4 0 19 0;
#X connect 19 0 23 0;
#X connect 23 0 13 0;
#X connect 23 1 18 0;
#X connect 23 2 14 0;
#X connect 23 3 15 0;
#X connect 23 4 16 0;
#X connect 23 5 17 0;
#X connect 23 6 24 0;
#X connect 23 7 25 0;
#X connect 23 8 11 0;
#X connect 23 9 12 0;
#X coords 0 -1 1 1 420 180 1 580 100;
#X restore 385 111 pd command-parsing;
#X obj 56 131 ./lib/tuneBasher~ \$0;
#X obj 56 185 clone ./lib/tuneReader~ \$1 \$0;
#X obj 266 265 outlet~;
#X text 521 50 [tune~] version 0.2.1;
#X text 521 70 William Brent \, June 2024;
#X connect 0 0 4 0;
#X connect 2 0 3 0;
#X connect 4 0 5 0;
#X connect 5 0 1 0;
#X connect 5 1 6 0;
