#N canvas 134 190 980 581 12;
#N canvas 690 283 785 634 other-commands 0;
#X msg 37 67 window-size \$1;
#X floatatom 117 207 5 0 0 1 ms - - 0;
#X msg 117 237 buf-read-delay \$1;
#X obj 37 578 outlet;
#X floatatom 147 327 5 0 0 1 hz - - 0;
#X msg 147 357 hi-pass-cutoff \$1;
#X floatatom 87 117 5 0 0 0 - - - 0;
#X msg 87 147 num-buf-blocks \$1;
#X floatatom 177 417 5 0 0 1 ms - - 0;
#X msg 177 447 pitch-ramp-time \$1;
#X floatatom 177 487 5 0 0 1 ms - - 0;
#X msg 177 517 spec-shift-ramp-time \$1;
#X msg 37 27 512;
#X msg 77 27 1024;
#X msg 127 27 2048;
#X msg 177 27 4096;
#X text 389 443 changes to the "pitch" and "spec-shift" parameters are ramped using [line~] objects inside of [tune~]. these commands change the ramp times for all voices globally., f 38;
#X text 299 213 "buf-read-delay" sets how far the playhead lags behind the record head in the circular buffer. the larger the read delay \, the more latency you will experience. by default \, the read delay is set to a quarter of the duration of the buffer. if you reduce the delay too much \, you will start hearing artifacts as the window being read and output involves part of the buffer where signal is actively being updated \, causing clicks and distortion.;
#X text 299 83 together \, "num-buf-blocks" and "window-size" determine the circular buffer size in samples. its size is calculated as num-buf-blocks*(window-size/2). generally \, you should keep the circular buffer on the small side \, since [tabread4~] objects are used to scan through it \, and the lookup precision of [tabread4~] is limited. if you open the [tune~] abstraction \, a parameter display panel shows the current size of the circular buffer in samples and seconds.;
#X text 299 23 choose between the four power-of-two FFT windows sizes at left to have some control over timbre and transient smearing (default: 1024).;
#X text 299 343 a high-pass filter is included just before output since there can be a strong DC component in the processed result. (default: 10Hz).;
#X connect 0 0 3 0;
#X connect 1 0 2 0;
#X connect 2 0 3 0;
#X connect 4 0 5 0;
#X connect 5 0 3 0;
#X connect 6 0 7 0;
#X connect 7 0 3 0;
#X connect 8 0 9 0;
#X connect 9 0 3 0;
#X connect 10 0 11 0;
#X connect 11 0 3 0;
#X connect 12 0 0 0;
#X connect 13 0 0 0;
#X connect 14 0 0 0;
#X connect 15 0 0 0;
#X restore 226 350 pd other-commands;
#N canvas 617 115 771 753 basic-commands 0;
#X obj 42 688 outlet;
#X msg 132 284 pan 0 \$1;
#X msg 162 344 vib-speed 0 \$1;
#X floatatom 162 314 5 0 10 1 Hz - - 0;
#X msg 192 404 vib-depth 0 \$1;
#X floatatom 192 374 5 0 500 1 cents - - 0;
#X msg 102 224 amp 0 \$1;
#X floatatom 102 194 5 0 112 1 dB - - 0;
#X floatatom 132 254 5 0 0 0 - - - 0;
#X floatatom 42 54 5 0 0 1 MIDI - - 0;
#X obj 301 593 loadbang;
#X floatatom 72 114 5 0 0 0 - - - 0;
#X msg 72 144 spec-shift 0 \$1;
#X msg 42 84 pitch 0 \$1;
#X text 258 98 "pitch" is specified as a MIDI note number \, and will force the input signal to the given pitch., f 64;
#X text 258 198 "amp" sets the volume of the given voice in dB (where unity is 100dB \, in keeping with Pd conventions)., f 64;
#X msg 252 504 unity-all;
#X msg 282 533 mute-all \$1;
#X text 258 138 "spec-shift" slides the spectral envelope upwards or downwards in hundredths of an octave \, creating timbre variations from dark to bright., f 64;
#X text 258 18 since [tune~] is polyphonic \, changing any of these parameters requires a voice ID (starting at voice 0). message arguments are: <parameter> <voice ID> <value>. for simplicity \, we'll just use voice 0 in a monophonic context here., f 64;
#X text 408 514 sometimes it's convenient to be able to mute all voices or set all voices to unity gain at once. for individual control \, see the [pd dealing-with-polyphony] sub-patch., f 42;
#X text 298 659 this initialization message sets up some basics for using voice 0 so that the help patch can produce sound at startup.;
#X obj 252 533 tgl 19 0 empty empty empty 0 -10 0 12 #fcfcfc #000000 #000000 0 1;
#X text 328 348 vibrato speed and depth can be specified for each voice. To disable vibrato \, set the depth to 0 cents., f 50;
#X msg 301 623 amp 0 100 \, pan 0 180 \, pitch 0 57 \, spec-shift 0;
#X floatatom 222 434 5 0 2000 1 ms - - 0;
#X msg 222 464 delay 0 \$1;
#X text 338 438 delay individual voices to create a rhythmically varied polyphonic texture from monophonic input. maximum delay time is 3000ms.;
#X text 258 258 "pan" positions the given voice in the spatial field (degrees), f 54;
#X connect 1 0 0 0;
#X connect 2 0 0 0;
#X connect 3 0 2 0;
#X connect 4 0 0 0;
#X connect 5 0 4 0;
#X connect 6 0 0 0;
#X connect 7 0 6 0;
#X connect 8 0 1 0;
#X connect 9 0 13 0;
#X connect 10 0 24 0;
#X connect 11 0 12 0;
#X connect 12 0 0 0;
#X connect 13 0 0 0;
#X connect 16 0 0 0;
#X connect 17 0 0 0;
#X connect 22 0 17 0;
#X connect 24 0 0 0;
#X connect 25 0 26 0;
#X connect 26 0 0 0;
#X restore 166 290 pd basic-commands;
#N canvas 160 330 516 475 pitch-track 0;
#X obj 253 280 + 0.5;
#X obj 253 304 i;
#X obj 253 170 moses 84;
#X obj 79 33 inlet~;
#X obj 253 224 / 48;
#X obj 253 194 - 36;
#X obj 253 358 + 36;
#X obj 163 86 sigmund~ -npts 4096 -hop 512 pitch;
#X obj 253 328 * 3;
#X obj 253 248 * 18;
#X obj 79 367 outlet~;
#X obj 253 382 spigot;
#X obj 253 430 outlet;
#X obj 323 342 inlet;
#X obj 163 170 moses 36;
#X obj 394 347 loadbang;
#X msg 394 377 57;
#X text 321 210 this quantizes pitch to a grid of minor thirds between MIDI 36 and 84, f 14;
#X connect 0 0 1 0;
#X connect 1 0 8 0;
#X connect 2 0 5 0;
#X connect 3 0 7 0;
#X connect 3 0 10 0;
#X connect 4 0 9 0;
#X connect 5 0 4 0;
#X connect 6 0 11 0;
#X connect 7 0 14 0;
#X connect 8 0 6 0;
#X connect 9 0 0 0;
#X connect 11 0 12 0;
#X connect 13 0 11 1;
#X connect 14 1 2 0;
#X connect 15 0 16 0;
#X connect 16 0 12 0;
#X coords 0 475 1 474 130 30 0;
#X restore 47 185 pd pitch-track;
#X obj 47 22 adc~;
#X obj 47 56 *~;
#X obj 125 140 readsf~;
#X msg 125 56 open ../doc/sound/voice.wav \, start;
#X msg 155 86 open ./audio/oboe-D62.wav \, start;
#X msg 146 225 pitch 0 \$1;
#N canvas 280 298 1252 588 dealing-with-polyphony 0;
#X obj 42 538 outlet;
#X obj 192 193 pack f f;
#X floatatom 192 106 5 0 0 1 spec-shift - - 0;
#X obj 192 136 t b f;
#X obj 192 159 f;
#X obj 372 193 pack f f;
#X floatatom 372 106 5 0 112 1 amp - - 0;
#X obj 372 136 t b f;
#X obj 372 159 f;
#X obj 372 216 list prepend amp;
#X obj 42 193 pack f f;
#X floatatom 42 106 5 21 108 1 pitch - - 0;
#X obj 42 136 t b f;
#X obj 42 159 f;
#X obj 42 216 list prepend pitch;
#X obj 42 279 list trim;
#X obj 192 216 list prepend spec-shift;
#X obj 662 193 pack f f;
#X floatatom 662 106 5 0 10 1 vib-speed - - 0;
#X obj 662 136 t b f;
#X obj 662 159 f;
#X obj 842 193 pack f f;
#X floatatom 842 106 5 0 500 1 vib-depth - - 0;
#X obj 842 136 t b f;
#X obj 842 159 f;
#X obj 512 193 pack f f;
#X floatatom 512 106 5 0 0 1 pan - - 0;
#X obj 512 136 t b f;
#X obj 512 159 f;
#X obj 512 216 list prepend pan;
#X obj 662 216 list prepend vib-speed;
#X obj 842 216 list prepend vib-depth;
#X obj 72 159 r \$0-voice-ID;
#X obj 222 159 r \$0-voice-ID;
#X obj 402 159 r \$0-voice-ID;
#X obj 542 159 r \$0-voice-ID;
#X obj 692 159 r \$0-voice-ID;
#X obj 872 159 r \$0-voice-ID;
#X obj 666 63 s \$0-voice-ID;
#X obj 153 383 pack f f;
#X obj 153 326 t b f;
#X obj 153 349 f;
#X obj 183 349 r \$0-voice-ID;
#X obj 153 406 list prepend mute;
#X obj 303 383 pack f f;
#X obj 303 326 t b f;
#X obj 303 349 f;
#X obj 333 349 r \$0-voice-ID;
#X obj 303 406 list prepend solo;
#X obj 153 449 list trim;
#X obj 666 33 hradio 19 1 0 4 empty empty voice\ ID 0 -10 0 12 #fcfcfc #000000 #000000 0;
#X text 38 36 here's one way to set up basic control of individual voices. specify a voice ID using the radio buttons at right \, then adjust the desired parameter below., f 80;
#X obj 153 296 tgl 19 0 empty empty mute 24 10 0 12 #fcfcfc #000000 #000000 0 1;
#X obj 303 296 tgl 19 0 empty empty solo 24 10 0 12 #fcfcfc #000000 #000000 0 1;
#X obj 1022 193 pack f f;
#X floatatom 1022 106 5 0 2000 1 delay - - 0;
#X obj 1022 136 t b f;
#X obj 1022 159 f;
#X obj 1052 159 r \$0-voice-ID;
#X obj 1022 216 list prepend delay;
#X text 470 483 here's a composed message that creates a minor 7th chord spread across the stereo field \, with staggered delays for each voice to create rhythmic variety. notice that the upper voices have some vibrato.;
#X msg 473 397 pitch 0 57 \, pitch 1 60 \, pitch 2 64 \, pitch 3 67 \, amp 0 100 \, amp 1 100 \, amp 2 100 \, amp 3 100 \, pan 0 45 \, pan 1 135 \, pan 2 225 \, pan 3 315 \, vib-speed 0 0 \, vib-speed 1 0 \, vib-speed 2 5 \, vib-speed 3 6 \, vib-depth 2 10 \, vib-depth 3 20 \, delay 0 0 \, delay 1 213 \, delay 2 498 \, delay 3 711;
#X connect 1 0 16 0;
#X connect 2 0 3 0;
#X connect 3 0 4 0;
#X connect 3 1 1 1;
#X connect 4 0 1 0;
#X connect 5 0 9 0;
#X connect 6 0 7 0;
#X connect 7 0 8 0;
#X connect 7 1 5 1;
#X connect 8 0 5 0;
#X connect 9 0 15 0;
#X connect 10 0 14 0;
#X connect 11 0 12 0;
#X connect 12 0 13 0;
#X connect 12 1 10 1;
#X connect 13 0 10 0;
#X connect 14 0 15 0;
#X connect 15 0 0 0;
#X connect 16 0 15 0;
#X connect 17 0 30 0;
#X connect 18 0 19 0;
#X connect 19 0 20 0;
#X connect 19 1 17 1;
#X connect 20 0 17 0;
#X connect 21 0 31 0;
#X connect 22 0 23 0;
#X connect 23 0 24 0;
#X connect 23 1 21 1;
#X connect 24 0 21 0;
#X connect 25 0 29 0;
#X connect 26 0 27 0;
#X connect 27 0 28 0;
#X connect 27 1 25 1;
#X connect 28 0 25 0;
#X connect 29 0 15 0;
#X connect 30 0 15 0;
#X connect 31 0 15 0;
#X connect 32 0 13 1;
#X connect 33 0 4 1;
#X connect 34 0 8 1;
#X connect 35 0 28 1;
#X connect 36 0 20 1;
#X connect 37 0 24 1;
#X connect 39 0 43 0;
#X connect 40 0 41 0;
#X connect 40 1 39 1;
#X connect 41 0 39 0;
#X connect 42 0 41 1;
#X connect 43 0 49 0;
#X connect 44 0 48 0;
#X connect 45 0 46 0;
#X connect 45 1 44 1;
#X connect 46 0 44 0;
#X connect 47 0 46 1;
#X connect 48 0 49 0;
#X connect 49 0 0 0;
#X connect 50 0 38 0;
#X connect 52 0 40 0;
#X connect 53 0 45 0;
#X connect 54 0 59 0;
#X connect 55 0 56 0;
#X connect 56 0 57 0;
#X connect 56 1 54 1;
#X connect 57 0 54 0;
#X connect 58 0 57 1;
#X connect 59 0 15 0;
#X connect 61 0 0 0;
#X restore 196 320 pd dealing-with-polyphony;
#X text 709 527 William Brent \, June 2024;
#X obj 87 56 tgl 19 0 empty empty empty 0 -10 0 12 #fcfcfc #000000 #000000 0 1;
#X obj 167 185 tgl 19 0 empty empty on/off 24 10 0 12 #fcfcfc #000000 #000000 0 1;
#X obj 46 500 output~;
#X obj 46 430 tune~ 4 2;
#X obj 46 464 snake~ out 2;
#X text 167 410 creation arguments:, f 29;
#X text 187 450 \$2: number of output channels;
#X text 187 430 \$1: number of polyphonic voices;
#X text 478 41 [tune~] performs real-time tuning of a live input signal to any desired MIDI pitch while keeping the spectral envelope relatively intact. it uses an adaptation of the technique demonstrated in Pd's I10.phase.bash.pd documentation patch.;
#X text 477 121 pitch adjustments sound best on stable pitched tones \, but you can get interesting results tuning regular speech too. try activating pitch tracking at left when playing the speech samples. whatever momentary pitches occur during vowel sounds are forced to a grid of minor thirds. pitch tracking the oboe sample won't do much - since it's a single stable tone \, its pitch will just be forced to the nearest MIDI note on the grid and stay there.;
#X text 477 251 [tune~] uses dynamic patching to allow for any number of polyphonic voices and any number of output channels for multi-channel spatialization (the vbap library is required for 3+ channels of output). the pitch \, amplitude \, delay time \, and pan position of each voice can be controlled individually (see [pd dealing-with-polyphony]). this enables the creation of spatialized polyphonic output from a monophonic input signal. to keep CPU usage low \, polyphony is implemented such that the FFT analysis for phase-bashing is performed only once per analysis window. the results are then used to process the resynthesis of as many voices as desired for that window.;
#X text 709 507 updated for [tune~] version 0.3.0;
#X connect 0 0 14 1;
#X connect 1 0 14 1;
#X connect 2 0 14 0;
#X connect 2 1 8 0;
#X connect 3 0 4 0;
#X connect 4 0 2 0;
#X connect 5 0 2 0;
#X connect 6 0 5 0;
#X connect 7 0 5 0;
#X connect 8 0 14 1;
#X connect 9 0 14 1;
#X connect 11 0 4 1;
#X connect 12 0 2 1;
#X connect 14 0 15 0;
#X connect 15 0 13 0;
#X connect 15 1 13 1;
