#N canvas 187 287 576 448 12;
#X obj 67 315 *~;
#X obj 67 376 outlet~;
#X obj 237 44 inlet;
#X obj 237 135 pack f 40;
#X obj 237 186 line~;
#X obj 237 242 sqrt~;
#X obj 167 315 *~;
#X obj 167 376 outlet~;
#X obj 142 117 sig~ 1;
#X obj 142 188 -~;
#X obj 142 219 sqrt~;
#X obj 67 44 inlet~;
#X text 337 132 simple square-root-law panner for stereo special case. [vbap] does not support stereo configurations., f 27;
#X obj 237 108 / 360;
#X obj 237 78 mod 360;
#X connect 0 0 1 0;
#X connect 2 0 14 0;
#X connect 3 0 4 0;
#X connect 4 0 5 0;
#X connect 4 0 9 1;
#X connect 5 0 6 1;
#X connect 6 0 7 0;
#X connect 8 0 9 0;
#X connect 9 0 10 0;
#X connect 10 0 0 1;
#X connect 11 0 0 0;
#X connect 11 0 6 0;
#X connect 13 0 3 0;
#X connect 14 0 13 0;
