#N canvas 883 470 603 512 10;
#N canvas 961 219 755 762 playback 0;
#X obj 541 369 phasor~;
#X obj 175 338 wrap~;
#X obj 28 722 outlet~;
#X text 375 427 convert to samples;
#X obj 28 672 +~;
#X obj 28 86 samplerate~;
#X text 226 301 read location \, blocks;
#X text 515 8 OVERLAPPED \, WINDOWED SAMPLE PLAYBACK, f 22;
#X obj 465 538 wrap~;
#X obj 465 513 +~ 0.5;
#X text 228 340 fractional part of loc, f 23;
#X text 16 308 grain size in samples, f 11;
#X obj 267 427 *~;
#X obj 175 301 *~;
#X obj 175 221 phasor~;
#X obj 175 135 t b f;
#X msg 175 159 1;
#X obj 175 183 /;
#X floatatom 236 136 10 0 0 0 - - -;
#X msg 245 221 0;
#X obj 267 380 -~;
#X text 308 380 integer part of loc, f 20;
#X text 510 100 drop the pitch by an octave because we are creating
2 precisely phased copies that are a half cycle out of phase with each
other \, creating double the requested frequency., f 27;
#X text 189 243 could temporarily slow down time if we go back to normal
speed before record head catches up to playhead position;
#X obj 172 16 inlet~;
#X obj 28 354 *~;
#X obj 175 111 r \$2-buf-dur-sec;
#X obj 245 190 r \$2-buf-read-reset;
#X obj 193 277 r \$2-num-buf-blocks;
#X obj 317 427 r \$2-hop;
#X text 228 16 dummy inlet for ensuring DSP ordering;
#X obj 439 104 inlet~;
#X obj 439 133 -~ 12;
#X obj 439 156 mtof~;
#X obj 28 266 /~;
#X obj 28 26 loadbang;
#X obj 28 107 sig~;
#X obj 28 47 metro 500;
#X obj 586 302 /~ 440;
#X obj 586 279 mtof~;
#X obj 586 256 +~ 69;
#X obj 586 232 *~ 0.125;
#X obj 586 205 inlet~;
#X text 438 74 PITCH;
#X text 639 203 SPECSHIFT;
#X obj 28 696 hip~ 5;
#X obj 85 672 r \$2-hi-pass-cutoff;
#X obj 267 401 +~ 0.5;
#X text 316 399 go to middle of block;
#X obj 28 580 tuneResynth~ \$2;
#X obj 268 580 tuneResynth~ \$2;
#X connect 0 0 9 0;
#X connect 0 0 49 3;
#X connect 1 0 20 1;
#X connect 1 0 49 1;
#X connect 1 0 50 1;
#X connect 4 0 45 0;
#X connect 5 0 36 0;
#X connect 8 0 50 3;
#X connect 9 0 8 0;
#X connect 12 0 49 2;
#X connect 12 0 50 2;
#X connect 13 0 1 0;
#X connect 13 0 20 0;
#X connect 14 0 13 0;
#X connect 15 0 16 0;
#X connect 15 1 17 1;
#X connect 16 0 17 0;
#X connect 17 0 14 0;
#X connect 19 0 14 1;
#X connect 20 0 47 0;
#X connect 25 0 49 0;
#X connect 25 0 50 0;
#X connect 26 0 15 0;
#X connect 26 0 18 0;
#X connect 27 0 19 0;
#X connect 28 0 13 1;
#X connect 29 0 12 1;
#X connect 31 0 32 0;
#X connect 32 0 33 0;
#X connect 33 0 0 0;
#X connect 33 0 34 1;
#X connect 34 0 25 0;
#X connect 35 0 37 0;
#X connect 36 0 34 0;
#X connect 37 0 5 0;
#X connect 38 0 25 1;
#X connect 39 0 38 0;
#X connect 40 0 39 0;
#X connect 41 0 40 0;
#X connect 42 0 41 0;
#X connect 45 0 2 0;
#X connect 46 0 45 1;
#X connect 47 0 12 0;
#X connect 49 0 4 0;
#X connect 50 0 4 1;
#X restore 28 262 pd playback;
#X obj 28 40 inlet~;
#X obj 28 446 outlet~;
#X obj 148 126 pack f 20;
#X obj 148 149 line~;
#X obj 348 149 line~;
#X obj 348 126 pack f 50;
#X obj 204 87 r \$2-pitch-ramp-time;
#X obj 404 87 r \$2-spec-shift-ramp-time;
#X obj 81 57 loadbang;
#X msg 81 80 60;
#X obj 108 446 outlet~;
#X obj 28 405 tunePan~;
#X obj 73 377 r \$2-\$1-pan;
#X obj 148 40 r \$2-\$1-pitch;
#X obj 348 40 r \$2-\$1-spec-shift;
#N canvas 793 366 490 382 vibrato 0;
#X obj 61 38 inlet~;
#X obj 61 271 +~;
#X obj 61 324 outlet~;
#X obj 203 40 r \$2-\$1-vib-speed;
#X obj 298 133 pack f 40;
#X obj 248 176 line~;
#X obj 248 259 osc~;
#X obj 248 302 *~;
#X obj 338 233 pack f 40;
#X obj 338 256 line~;
#X obj 338 170 r \$2-\$1-vib-depth;
#X obj 203 63 select 0;
#X obj 203 86 t b b;
#X msg 248 133 0;
#X msg 203 200 0;
#X obj 338 193 / 100;
#X connect 0 0 1 0;
#X connect 1 0 2 0;
#X connect 3 0 11 0;
#X connect 4 0 5 0;
#X connect 5 0 6 0;
#X connect 6 0 7 0;
#X connect 7 0 1 1;
#X connect 8 0 9 0;
#X connect 9 0 7 1;
#X connect 10 0 15 0;
#X connect 11 0 12 0;
#X connect 11 1 4 0;
#X connect 12 0 14 0;
#X connect 12 1 13 0;
#X connect 13 0 5 0;
#X connect 14 0 6 1;
#X connect 15 0 8 0;
#X restore 148 179 pd vibrato;
#N canvas 502 398 321 300 gain 0;
#X obj 37 37 inlet~;
#X obj 37 162 *~;
#X obj 136 186 pack f 40;
#X obj 136 209 line~;
#X obj 37 255 outlet~;
#X obj 136 43 r \$2-\$1-amp;
#X obj 136 66 max 0;
#X obj 136 89 dbtorms;
#X connect 0 0 1 0;
#X connect 1 0 4 0;
#X connect 2 0 3 0;
#X connect 3 0 1 1;
#X connect 5 0 6 0;
#X connect 6 0 7 0;
#X connect 7 0 2 0;
#X restore 28 315 pd gain;
#X connect 0 0 17 0;
#X connect 1 0 0 0;
#X connect 3 0 4 0;
#X connect 4 0 16 0;
#X connect 5 0 0 2;
#X connect 6 0 5 0;
#X connect 7 0 3 1;
#X connect 8 0 6 1;
#X connect 9 0 10 0;
#X connect 10 0 3 0;
#X connect 12 0 2 0;
#X connect 12 1 11 0;
#X connect 13 0 12 1;
#X connect 14 0 3 0;
#X connect 15 0 6 0;
#X connect 16 0 0 1;
#X connect 17 0 12 0;
