#N canvas 396 183 880 632 12;
#N canvas 896 74 779 808 playback 0;
#X obj 544 389 phasor~;
#X obj 178 358 wrap~;
#X obj 28 752 outlet~;
#X text 388 456 convert to samples;
#X obj 28 692 +~;
#X obj 28 86 samplerate~;
#X text 229 321 read location \, blocks;
#X text 521 18 OVERLAPPED \, WINDOWED SAMPLE PLAYBACK, f 22;
#X obj 468 558 wrap~;
#X obj 468 533 +~ 0.5;
#X text 231 360 fractional part of loc, f 23;
#X text 16 328 grain size in samples, f 11;
#X obj 270 456 *~;
#X obj 178 321 *~;
#X obj 178 221 phasor~;
#X obj 178 135 t b f;
#X msg 178 159 1;
#X obj 178 183 /;
#X floatatom 239 136 10 0 0 0 - - - 0;
#X msg 248 221 0;
#X obj 270 400 -~;
#X text 311 400 integer part of loc, f 20;
#X text 515 80 drop the pitch by an octave because we are creating 2 precisely phased copies that are a half cycle out of phase with each other \, creating double the requested frequency., f 27;
#X text 192 243 could temporarily slow down time if we go back to normal speed before record head catches up to playhead position;
#X obj 178 26 inlet~;
#X obj 28 374 *~;
#X text 234 26 dummy inlet for ensuring DSP ordering;
#X obj 442 104 inlet~;
#X obj 442 133 -~ 12;
#X obj 442 156 mtof~;
#X obj 28 266 /~;
#X obj 28 26 loadbang;
#X obj 28 116 sig~;
#X obj 28 56 metro 500;
#X obj 609 302 /~ 440;
#X obj 609 279 mtof~;
#X obj 609 256 +~ 69;
#X obj 609 232 *~ 0.125;
#X obj 609 205 inlet~;
#X text 441 74 PITCH;
#X text 659 203 SPECSHIFT;
#X obj 28 722 hip~ 5;
#X obj 270 430 +~ 0.5;
#X text 319 428 go to middle of block;
#X obj 178 111 r \$3-buf-dur-sec;
#X obj 248 190 r \$3-buf-read-reset;
#X obj 196 297 r \$3-num-buf-blocks;
#X obj 320 456 r \$3-hop;
#X obj 271 600 tuneResynth~ \$3;
#X obj 28 600 tuneResynth~ \$3;
#X obj 85 698 r \$3-hi-pass-cutoff;
#X connect 0 0 9 0;
#X connect 0 0 49 3;
#X connect 1 0 20 1;
#X connect 1 0 48 1;
#X connect 1 0 49 1;
#X connect 4 0 41 0;
#X connect 5 0 32 0;
#X connect 8 0 48 3;
#X connect 9 0 8 0;
#X connect 12 0 48 2;
#X connect 12 0 49 2;
#X connect 13 0 1 0;
#X connect 13 0 20 0;
#X connect 14 0 13 0;
#X connect 15 0 16 0;
#X connect 15 1 17 1;
#X connect 16 0 17 0;
#X connect 17 0 14 0;
#X connect 19 0 14 1;
#X connect 20 0 42 0;
#X connect 25 0 48 0;
#X connect 25 0 49 0;
#X connect 27 0 28 0;
#X connect 28 0 29 0;
#X connect 29 0 0 0;
#X connect 29 0 30 1;
#X connect 30 0 25 0;
#X connect 31 0 33 0;
#X connect 32 0 30 0;
#X connect 33 0 5 0;
#X connect 34 0 25 1;
#X connect 35 0 34 0;
#X connect 36 0 35 0;
#X connect 37 0 36 0;
#X connect 38 0 37 0;
#X connect 41 0 2 0;
#X connect 42 0 12 0;
#X connect 44 0 15 0;
#X connect 44 0 18 0;
#X connect 45 0 19 0;
#X connect 46 0 13 1;
#X connect 47 0 12 1;
#X connect 48 0 4 1;
#X connect 49 0 4 0;
#X connect 50 0 41 1;
#X restore 28 262 pd playback;
#X obj 28 40 inlet~;
#X obj 28 576 outlet~;
#X obj 168 126 pack f 20;
#X obj 168 156 line~;
#X obj 388 156 line~;
#X obj 388 126 pack f 50;
#X obj 101 56 loadbang;
#X msg 101 86 60;
#N canvas 793 366 490 382 vibrato 0;
#X obj 61 38 inlet~;
#X obj 61 285 +~;
#X obj 61 338 outlet~;
#X obj 298 147 pack f 40;
#X obj 248 190 line~;
#X obj 248 273 osc~;
#X obj 248 316 *~;
#X obj 338 254 pack f 40;
#X obj 338 284 line~;
#X obj 203 70 select 0;
#X obj 203 100 t b b;
#X msg 248 147 0;
#X msg 203 214 0;
#X obj 338 214 / 100;
#X obj 203 40 r \$3-\$1-vib-speed;
#X obj 338 184 r \$3-\$1-vib-depth;
#X connect 0 0 1 0;
#X connect 1 0 2 0;
#X connect 3 0 4 0;
#X connect 4 0 5 0;
#X connect 5 0 6 0;
#X connect 6 0 1 1;
#X connect 7 0 8 0;
#X connect 8 0 6 1;
#X connect 9 0 10 0;
#X connect 9 1 3 0;
#X connect 10 0 12 0;
#X connect 10 1 11 0;
#X connect 11 0 4 0;
#X connect 12 0 5 1;
#X connect 13 0 7 0;
#X connect 14 0 9 0;
#X connect 15 0 13 0;
#X restore 168 186 pd vibrato;
#N canvas 502 398 321 300 gain 0;
#X obj 37 37 inlet~;
#X obj 37 162 *~;
#X obj 136 186 pack f 40;
#X obj 136 209 line~;
#X obj 37 255 outlet~;
#X obj 136 66 max 0;
#X obj 136 89 dbtorms;
#X obj 136 43 r \$3-\$1-amp;
#X connect 0 0 1 0;
#X connect 1 0 4 0;
#X connect 2 0 3 0;
#X connect 3 0 1 1;
#X connect 5 0 6 0;
#X connect 6 0 2 0;
#X connect 7 0 5 0;
#X restore 28 315 pd gain;
#N canvas 612 26 1041 495 dynamic-patching 0;
#X obj 53 68 loadbang;
#X msg 647 389 clear;
#X msg 607 189 obj 50 50 inlet~;
#X msg 647 309 obj 50 600 outlet~;
#X msg 617 219 obj 250 50 inlet;
#X msg 627 249 obj 450 50 inlet;
#X msg 637 279 obj 650 50 inlet;
#X text 604 116 this created the initial shell of the tune-tilde-pan~.pd abstraction from scratch so that the 4 inlets and 1 outlet have stable indices for dynamic patching connections. see dynamic-tune-tilde-pan~-notes.txt for reference.;
#X text 50 24 here \, we use dynamic patching to build the panning system based on the desired number of output channels (\$2);
#X obj 53 112 f \$2;
#N canvas 934 301 400 456 three-plus-channels 0;
#X obj 37 37 inlet;
#N canvas 933 526 552 292 create-limiters 0;
#X obj 46 36 inlet;
#X obj 46 210 s pd-\$0-tune-tilde-voice-panner;
#X msg 46 100 obj 450 75 max 0 \, obj 450 100 min 360 \, obj 450 125 t b b f \, obj 650 75 max 0 \, obj 650 100 min 100 \, obj 650 125 t b b f \, obj 450 200 vbap 0 0 30 \;;
#X connect 0 0 2 0;
#X connect 2 0 1 0;
#X restore 197 192 pd create-limiters;
#N canvas 740 303 537 457 create-route 0;
#X obj 46 36 inlet;
#X obj 46 60 f \$2;
#X obj 46 84 t b f b b;
#X obj 76 127 until;
#X obj 76 181 f;
#X obj 106 185 + 1;
#X msg 98 152 0;
#X obj 46 275 list store;
#X msg 76 235 append \$1;
#X obj 46 383 list trim;
#X listbox 66 343 53 0 0 0 - - - 0;
#X obj 46 299 list prepend obj 450 225 route;
#X obj 46 413 s pd-\$0-tune-tilde-voice-panner;
#X connect 0 0 1 0;
#X connect 1 0 2 0;
#X connect 2 0 7 0;
#X connect 2 1 3 0;
#X connect 2 2 6 0;
#X connect 2 3 7 1;
#X connect 3 0 4 0;
#X connect 4 0 5 0;
#X connect 4 0 8 0;
#X connect 5 0 4 1;
#X connect 6 0 4 1;
#X connect 7 0 11 0;
#X connect 8 0 7 0;
#X connect 9 0 12 0;
#X connect 11 0 9 0;
#X connect 11 0 10 0;
#X restore 157 232 pd create-route;
#N canvas 906 220 608 443 create-multipliers 0;
#X obj 46 36 inlet;
#X obj 46 60 f \$2;
#X obj 46 137 until;
#X obj 46 191 f;
#X obj 76 195 + 1;
#X msg 68 162 0;
#X text 150 232 first multiplier is 50px offset on X \, 500px offset on Y;
#X text 150 172 first pack is 85px offset on X \, 450px offset on Y;
#X text 150 202 first line~ is 85px offset on X \, 475px offset on Y;
#X obj 46 249 t f f;
#X msg 46 343 obj \$1 450 pack f 40 \, obj \$1 475 line~ \, obj \$2 500 *~;
#X obj 46 273 + 85;
#X obj 86 273 + 50;
#X obj 46 297 pack f f;
#X obj 46 225 * 120;
#X obj 46 84 t f b;
#X obj 46 383 s pd-\$0-tune-tilde-voice-panner;
#X connect 0 0 1 0;
#X connect 1 0 15 0;
#X connect 2 0 3 0;
#X connect 3 0 4 0;
#X connect 3 0 14 0;
#X connect 4 0 3 1;
#X connect 5 0 3 1;
#X connect 9 0 11 0;
#X connect 9 1 12 0;
#X connect 10 0 16 0;
#X connect 11 0 13 0;
#X connect 12 0 13 1;
#X connect 13 0 10 0;
#X connect 14 0 9 0;
#X connect 15 0 2 0;
#X connect 15 1 5 0;
#X restore 117 272 pd create-multipliers;
#N canvas 1096 485 372 267 create-connections 0;
#X obj 46 36 inlet;
#N canvas 1230 325 523 310 connect-limiters 0;
#X obj 49 29 inlet;
#X obj 49 53 t b b;
#X msg 109 117 connect 2 0 5 0 \, connect 5 0 6 0 \, connect 6 0 7 0;
#X msg 49 177 connect 3 0 8 0 \, connect 8 0 9 0 \, connect 9 0 10 0;
#X text 155 89 azimuth limiter;
#X text 155 205 spread limiter;
#X obj 49 239 s pd-\$0-tune-tilde-voice-panner;
#X connect 0 0 1 0;
#X connect 1 0 3 0;
#X connect 1 1 2 0;
#X connect 2 0 6 0;
#X connect 3 0 6 0;
#X restore 136 110 pd connect-limiters;
#N canvas 1019 410 790 405 connect-vbap-and-route 0;
#X obj 49 29 inlet;
#X text 368 106 define_loudspeakers inlet to [vbap];
#X msg 229 107 connect 1 0 11 0;
#X text 559 167 azimuth limiter to [vbap];
#X text 515 226 spread limiter to [vbap];
#X text 435 287 [vbap] to [route];
#X obj 49 53 t b b b b;
#X msg 49 287 connect 11 0 12 0;
#X obj 49 329 s pd-\$0-tune-tilde-voice-panner;
#X msg 169 167 connect 7 0 11 0 \, connect 7 1 11 0 \, connect 7 2 11 1;
#X msg 109 227 connect 10 0 11 0 \, connect 10 1 11 0 \, connect 10 2 11 3;
#X connect 0 0 6 0;
#X connect 2 0 8 0;
#X connect 6 0 7 0;
#X connect 6 1 10 0;
#X connect 6 2 9 0;
#X connect 6 3 2 0;
#X connect 7 0 8 0;
#X connect 9 0 8 0;
#X connect 10 0 8 0;
#X restore 106 140 pd connect-vbap-and-route;
#N canvas 969 135 842 652 connect-multipliers 0;
#X obj 179 29 inlet;
#X text 65 258 channel loop i = 0 : N-1, f 13;
#X text 377 218 object loop j = 0 : 2;
#X text 525 535 \$2: pack for channel i;
#X text 525 515 \$1: route outlet for channel i;
#X text 525 555 \$3: line~ for channel i;
#X text 525 575 \$4: *~ for channel i;
#X obj 179 187 f \$2;
#X obj 179 231 t f b;
#X obj 179 265 until;
#X obj 179 309 f;
#X obj 209 313 + 1;
#X msg 227 280 0;
#X msg 309 163 3;
#X obj 309 187 t f b;
#X obj 309 221 until;
#X obj 309 275 f;
#X obj 339 279 + 1;
#X msg 337 246 0;
#X text 439 309 list needs to contain:;
#X text 439 359 \$2: 13 + 3i + 0;
#X text 439 379 \$3 13 + 3i + 1;
#X text 439 399 \$4 13 + 3i + 2;
#X obj 309 329 +;
#X obj 359 329 * 3;
#X obj 359 353 + 13;
#X obj 279 433 list store;
#X msg 309 383 append \$1;
#X obj 279 123 t b b f f b;
#X text 439 279 formula for the object indices is 13 + 3i + j;
#X text 20 170 number of output channels (i loop) >>, f 21;
#X text 361 162 << number of objects in a multiplier group (j loop), f 28;
#X msg 279 473 connect 12 \$1 \$2 0 \, connect \$2 0 \$3 0 \, connect \$3 0 \$4 1 \, connect 0 0 \$4 0;
#X text 439 339 \$1: i (the channel number to determine [route] outlet);
#X obj 279 573 s pd-\$0-tune-tilde-voice-panner;
#X connect 0 0 7 0;
#X connect 7 0 8 0;
#X connect 8 0 9 0;
#X connect 8 1 12 0;
#X connect 9 0 10 0;
#X connect 10 0 11 0;
#X connect 10 0 28 0;
#X connect 11 0 10 1;
#X connect 12 0 10 1;
#X connect 13 0 14 0;
#X connect 14 0 15 0;
#X connect 14 1 18 0;
#X connect 15 0 16 0;
#X connect 16 0 17 0;
#X connect 16 0 23 0;
#X connect 17 0 16 1;
#X connect 18 0 16 1;
#X connect 23 0 27 0;
#X connect 24 0 25 0;
#X connect 25 0 23 1;
#X connect 26 0 32 0;
#X connect 27 0 26 0;
#X connect 28 0 26 0;
#X connect 28 1 13 0;
#X connect 28 2 24 0;
#X connect 28 3 27 0;
#X connect 28 4 26 1;
#X connect 32 0 34 0;
#X restore 76 170 pd connect-multipliers;
#X obj 46 60 t b b b b;
#N canvas 591 430 789 532 connect-snake-and-outlet 0;
#X obj 49 29 inlet;
#X text 283 417 [snake~] to [outlet~];
#X msg 129 417 connect \$1 0 4 0;
#X obj 49 53 f \$2;
#X text 99 54 << number of channels;
#X obj 159 137 * 3;
#X obj 159 161 + 13;
#X obj 49 77 t f f;
#X obj 49 127 t f b;
#X obj 49 161 until;
#X obj 49 205 f;
#X obj 79 209 + 1;
#X msg 97 176 0;
#X text 317 80 index of [snake~] in an N-channel system is 13 + 3N;
#X text 317 120 index of each [*~] in an N-channel system is 13 + 3i + 2 (where i is the current channel number);
#X obj 49 269 * 3;
#X obj 49 293 + 13;
#X obj 49 317 + 2;
#X obj 49 239 t f f;
#X text 110 239 << current channel number \, i;
#X text 205 384 \$3: the channel index \, i;
#X text 205 344 \$1: index of the [*~] for channel i;
#X text 205 364 \$2: index of [snake~];
#X msg 49 365 connect \$1 0 \$2 \$3;
#X obj 49 341 pack f f f;
#X obj 49 469 s pd-\$0-tune-tilde-voice-panner;
#X connect 0 0 3 0;
#X connect 2 0 25 0;
#X connect 3 0 7 0;
#X connect 5 0 6 0;
#X connect 6 0 2 0;
#X connect 6 0 24 1;
#X connect 7 0 8 0;
#X connect 7 1 5 0;
#X connect 8 0 9 0;
#X connect 8 1 12 0;
#X connect 9 0 10 0;
#X connect 10 0 11 0;
#X connect 10 0 18 0;
#X connect 11 0 10 1;
#X connect 12 0 10 1;
#X connect 15 0 16 0;
#X connect 16 0 17 0;
#X connect 17 0 24 0;
#X connect 18 0 15 0;
#X connect 18 1 24 2;
#X connect 23 0 25 0;
#X connect 24 0 23 0;
#X restore 46 200 pd connect-snake-and-outlet;
#X connect 0 0 4 0;
#X connect 4 0 5 0;
#X connect 4 1 3 0;
#X connect 4 2 2 0;
#X connect 4 3 1 0;
#X restore 37 352 pd create-connections;
#N canvas 945 404 317 271 create-snake 0;
#X obj 46 36 inlet;
#X obj 46 60 f \$2;
#X obj 46 183 s pd-\$0-tune-tilde-voice-panner;
#X msg 46 110 obj 50 550 snake~ in \$1;
#X connect 0 0 1 0;
#X connect 1 0 3 0;
#X connect 3 0 2 0;
#X restore 77 312 pd create-snake;
#X obj 37 72 t b b b b b;
#X connect 0 0 6 0;
#X connect 6 0 4 0;
#X connect 6 1 5 0;
#X connect 6 2 3 0;
#X connect 6 3 2 0;
#X connect 6 4 1 0;
#X restore 173 224 pd three-plus-channels;
#X obj 53 180 select 0 1 2;
#X text 141 93 [vbap] only works for 3-channel configurations and higher \, so we special case mono and stereo configurations. also throwing in a case for 0 channels so that it defaults to mono.;
#N canvas 221 488 450 300 mono 0;
#X obj 37 37 inlet;
#X msg 37 101 connect 0 0 4 0;
#X obj 37 165 s pd-\$0-tune-tilde-voice-panner;
#X text 180 100 connect [inlet~] to [outlet~];
#X connect 0 0 1 0;
#X connect 1 0 2 0;
#X restore 53 284 pd mono;
#N canvas 547 378 806 518 stereo 0;
#X obj 37 37 inlet;
#X obj 37 445 s pd-\$0-tune-tilde-voice-panner;
#X text 520 142 create panner;
#X text 180 340 connect pan inlet to panner;
#X msg 237 141 obj 50 200 tune-tilde-stereo-panner~;
#X text 300 220 connect [inlet~] to panner;
#X msg 157 221 connect 0 0 5 0;
#X text 390 180 create snake;
#X msg 197 181 obj 50 300 snake~ in 2;
#X text 360 260 connect panner to [snake~];
#X text 220 300 connect [snake~] to [outlet~];
#X msg 77 301 connect 6 0 4 0;
#X obj 37 61 t b b b b b b;
#X msg 37 341 connect 2 0 5 1;
#X msg 117 261 connect 5 0 6 0 \, connect 5 1 6 1;
#X connect 0 0 12 0;
#X connect 4 0 1 0;
#X connect 6 0 1 0;
#X connect 8 0 1 0;
#X connect 11 0 1 0;
#X connect 12 0 13 0;
#X connect 12 1 11 0;
#X connect 12 2 14 0;
#X connect 12 3 6 0;
#X connect 12 4 8 0;
#X connect 12 5 4 0;
#X connect 13 0 1 0;
#X connect 14 0 1 0;
#X restore 133 254 pd stereo;
#X obj 607 429 s pd-\$0-tune-tilde-voice-panner;
#X connect 0 0 9 0;
#X connect 1 0 15 0;
#X connect 2 0 15 0;
#X connect 3 0 15 0;
#X connect 4 0 15 0;
#X connect 5 0 15 0;
#X connect 6 0 15 0;
#X connect 9 0 11 0;
#X connect 11 0 13 0;
#X connect 11 1 13 0;
#X connect 11 2 14 0;
#X connect 11 3 10 0;
#X restore 485 318 pd dynamic-patching;
#X text 482 238 \$1: voice index;
#X text 314 455 this is global;
#X text 257 356 this is global;
#X text 47 525 \$2 channels of output in a multi-channel audio connection;
#X text 482 258 \$2: number of output channels;
#X text 482 278 \$3: parent \$0 value;
#X obj 191 405 r \$3-\$1-tune-tilde-pan-pos;
#X obj 251 435 r \$3-tune-tilde-pan-spread;
#X obj 131 375 r \$3-tune-tilde-define-loudspeakers;
#N canvas 214 210 1435 682 \$0-tune-tilde-voice-panner 0;
#X obj 50 50 inlet~;
#X obj 250 50 inlet;
#X obj 450 50 inlet;
#X obj 650 50 inlet;
#X obj 50 600 outlet~;
#X connect 0 0 4 0;
#X restore 28 495 pd \$0-tune-tilde-voice-panner;
#X obj 168 56 r \$3-\$1-pitch;
#X obj 234 86 r \$3-pitch-ramp-time;
#X obj 388 56 r \$3-\$1-spec-shift;
#X obj 454 86 r \$3-spec-shift-ramp-time;
#X connect 0 0 10 0;
#X connect 1 0 0 0;
#X connect 3 0 4 0;
#X connect 4 0 9 0;
#X connect 5 0 0 2;
#X connect 6 0 5 0;
#X connect 7 0 8 0;
#X connect 8 0 3 0;
#X connect 9 0 0 1;
#X connect 10 0 21 0;
#X connect 18 0 21 2;
#X connect 19 0 21 3;
#X connect 20 0 21 1;
#X connect 21 0 2 0;
#X connect 22 0 3 0;
#X connect 23 0 3 1;
#X connect 24 0 6 0;
#X connect 25 0 6 1;
