#N canvas 864 183 373 413 10;
#X obj 42 43 inlet~;
#X obj 42 307 *~;
#X obj 42 351 outlet~;
#X obj 72 277 sqrt~;
#X obj 212 307 *~;
#X obj 212 351 outlet~;
#X obj 242 277 sqrt~;
#X obj 242 43 inlet;
#X obj 242 167 pack f 40;
#X obj 242 191 line~;
#X obj 72 227 sig~ 1;
#X obj 72 251 -~;
#X obj 242 115 + 100;
#X obj 242 138 / 200;
#X obj 242 67 max -100;
#X obj 242 91 min 100;
#X connect 0 0 1 0;
#X connect 0 0 4 0;
#X connect 1 0 2 0;
#X connect 3 0 1 1;
#X connect 4 0 5 0;
#X connect 6 0 4 1;
#X connect 7 0 14 0;
#X connect 8 0 9 0;
#X connect 9 0 6 0;
#X connect 9 0 11 1;
#X connect 10 0 11 0;
#X connect 11 0 3 0;
#X connect 12 0 13 0;
#X connect 13 0 8 0;
#X connect 14 0 15 0;
#X connect 15 0 12 0;
