#N canvas 843 217 436 234 12;
#N canvas 120 120 375 395 hann-window 0;
#X obj 89 236 osc~;
#X obj 89 261 *~ -0.5;
#X obj 89 285 +~ 0.5;
#X obj 42 318 tabwrite~ \$1-hann;
#X obj 88 123 samplerate~;
#X obj 41 150 swap;
#X obj 41 174 /;
#X obj 41 86 t f b f;
#X msg 176 63 resize \$1;
#X obj 176 87 s \$1-hann;
#X msg 93 201 0;
#X obj 41 202 t f b;
#X obj 240 243 table \$1-hann;
#X obj 41 49 r \$1-window-size;
#X connect 0 0 1 0;
#X connect 1 0 2 0;
#X connect 2 0 3 0;
#X connect 4 0 5 1;
#X connect 5 0 6 0;
#X connect 5 1 6 1;
#X connect 6 0 11 0;
#X connect 7 0 5 0;
#X connect 7 1 4 0;
#X connect 7 2 8 0;
#X connect 8 0 9 0;
#X connect 10 0 0 1;
#X connect 11 0 0 0;
#X connect 11 1 3 0;
#X connect 11 1 10 0;
#X connect 13 0 7 0;
#X restore 247 84 pd hann-window;
#N canvas 170 438 533 486 control-stuff 0;
#X obj 32 113 / 2;
#X text 34 16 analysis overlap was 2 so our block size is (window size)/2, f 31;
#X obj 63 268 *;
#X obj 121 333 /;
#X obj 171 333 samplerate~;
#X obj 53 326 + 3;
#X obj 63 362 pack f f f \$1;
#X obj 63 292 t f f f b;
#X obj 32 83 t f b;
#X msg 96 117 const 0;
#X obj 96 141 s \$1-nophase;
#X obj 32 59 r \$1-window-size;
#X obj 63 185 r \$1-hop;
#X obj 32 143 s \$1-hop;
#X obj 325 236 r \$1-buf-dur-sec;
#X obj 124 209 r \$1-num-buf-blocks;
#X msg 63 389 \; \$4-nophase-num-points-guarded \$1 \; \$4-nophase resize \$1 \; \$4-buf-dur-sec \$3 \; \$4-buf-dur-samps \$2 \;;
#X obj 325 284 s \$1-buf-read-delay;
#X obj 124 230 t b f;
#X obj 325 260 * 250;
#X connect 0 0 13 0;
#X connect 2 0 7 0;
#X connect 3 0 6 2;
#X connect 4 0 3 1;
#X connect 5 0 6 0;
#X connect 6 0 16 0;
#X connect 7 0 5 0;
#X connect 7 1 6 1;
#X connect 7 2 3 0;
#X connect 7 3 4 0;
#X connect 8 0 0 0;
#X connect 8 1 9 0;
#X connect 9 0 10 0;
#X connect 11 0 8 0;
#X connect 12 0 2 0;
#X connect 14 0 19 0;
#X connect 15 0 18 0;
#X connect 18 0 2 0;
#X connect 18 1 2 1;
#X connect 19 0 17 0;
#X restore 247 114 pd control-stuff;
#N canvas 593 167 450 300 buffer-writing 0;
#X obj 34 24 inlet~;
#X obj 34 258 outlet~;
#X obj 34 165 tabwrite~ \$1-nophase;
#X obj 224 215 table \$1-nophase;
#N canvas 121 233 838 597 record-commands 0;
#X obj 341 81 inlet;
#X obj 421 481 outlet;
#X obj 558 459 tabread \$1-nophase;
#X obj 566 240 r \$1-nophase-num-points-guarded;
#X floatatom 566 264 10 0 0 0 - - - 0;
#X obj 558 429 f;
#X obj 558 483 t f b;
#X obj 558 507 tabwrite \$1-nophase;
#X msg 622 483 0;
#X text 51 434 True signal is recorded from indices 1 through buf-dur-samps \, (not 0 through buf-dur-samps MINUS 1), f 25;
#X text 51 514 So the guard points go at 0 \, buf-dur-samps PLUS 1 \, and buf-dur-samps PLUS 2, f 27;
#X obj 207 365 + 1;
#X obj 67 395 tabwrite \$1-nophase;
#X obj 67 355 tabread \$1-nophase;
#X msg 67 325 1;
#X obj 117 311 tabwrite \$1-nophase;
#X obj 117 271 tabread \$1-nophase;
#X obj 257 281 + 2;
#X msg 117 241 2;
#X floatatom 271 311 10 0 0 0 - - - 0;
#X floatatom 225 394 10 0 0 0 - - - 0;
#X obj 139 172 /;
#X obj 189 172 samplerate~;
#X obj 139 146 t f b;
#X obj 139 196 * 1000;
#X obj 67 171 delay;
#X obj 67 205 t b b;
#X floatatom 166 230 10 0 0 0 - - - 0;
#X text 517 80 The first copy point is a copy of the LAST true point in the buffer. The final two copy points are copies of the FIRST TWO true points in the buffer., f 21;
#X msg 421 447 start 1;
#X text 446 377 Write to indices 1 through buf-dur-samps (not 0 through buf-dur-samps - 1), f 42;
#X text 13 23 Wait until half the buffer length before copying the beginning guard points from the end of the buffer, f 15;
#X obj 139 105 / 2;
#X obj 341 107 t b b b;
#X obj 139 81 r \$1-buf-dur-samps;
#X obj 257 257 r \$1-buf-dur-samps;
#X obj 207 341 r \$1-buf-dur-samps;
#X obj 598 429 r \$1-buf-dur-samps;
#X connect 0 0 33 0;
#X connect 2 0 6 0;
#X connect 3 0 4 0;
#X connect 5 0 2 0;
#X connect 6 0 7 0;
#X connect 6 1 8 0;
#X connect 8 0 7 1;
#X connect 11 0 12 1;
#X connect 11 0 20 0;
#X connect 13 0 12 0;
#X connect 14 0 13 0;
#X connect 16 0 15 0;
#X connect 17 0 15 1;
#X connect 17 0 19 0;
#X connect 18 0 16 0;
#X connect 21 0 24 0;
#X connect 22 0 21 1;
#X connect 23 0 21 0;
#X connect 23 1 22 0;
#X connect 24 0 25 1;
#X connect 24 0 27 0;
#X connect 25 0 26 0;
#X connect 26 0 14 0;
#X connect 26 1 18 0;
#X connect 29 0 1 0;
#X connect 32 0 23 0;
#X connect 33 0 25 0;
#X connect 33 1 29 0;
#X connect 33 2 5 0;
#X connect 34 0 32 0;
#X connect 35 0 17 0;
#X connect 36 0 11 0;
#X connect 37 0 5 1;
#X restore 154 95 pd record-commands;
#X obj 154 24 inlet;
#X connect 0 0 2 0;
#X connect 4 0 2 0;
#X connect 5 0 4 0;
#X restore 28 122 pd buffer-writing;
#N canvas 78 96 825 659 fft-analysis 0;
#X obj 49 154 *~;
#X obj 17 154 *~;
#X obj 17 99 *~;
#X obj 17 71 inlet~;
#X obj 17 126 rfft~;
#X obj 17 228 *~;
#X obj 17 307 rifft~;
#X obj 53 100 tabreceive~ \$1-hann;
#X obj 347 160 samplerate~;
#X obj 338 126 bang~;
#X obj 347 185 t f b;
#X obj 263 78 block~;
#X obj 347 209 osc~;
#X msg 391 209 0;
#X obj 17 334 *~;
#X obj 53 335 tabreceive~ \$1-hann;
#X obj 17 364 outlet~;
#X msg 263 54 set \$1 2;
#X obj 338 447 outlet;
#X text 106 197 magnitude of FT;
#X text 393 124 control computations to do every frame;
#X text 24 385 output phase-aligned frames;
#X text 356 478 output a bang to start recording;
#X obj 17 201 sqrt~;
#X obj 17 282 /~;
#X text 442 160 This is just a shortcut to generate alternating +1/-1 values in a signal buffer since a critically sampled sinusoid starting at phase 0 will have those values. It would also work to make an N-point array with +1/-1 values in it., f 45;
#X obj 338 265 f;
#X obj 388 249 + 1;
#X obj 388 273 %;
#X obj 338 339 select 0;
#X floatatom 370 312 5 0 0 0 - - - 0;
#X text 51 453 We're dropping the imaginary part (no input to right inlet of [rifft~]) \, since we're zeroing phase for every frame., f 32;
#X obj 263 32 r \$1-window-size;
#X obj 87 282 r \$1-window-size;
#X obj 438 273 r \$1-num-buf-blocks;
#X text 49 233 alternate every other sign to align partials to middle of window, f 36;
#X obj 408 426 delay;
#X obj 408 450 s \$1-buf-read-reset;
#X obj 408 370 r \$1-buf-read-delay;
#X obj 408 401 f;
#X text 425 300 Start recording to the buffer \, and reset the read [phasor~] after a delay so that it lags behind by the desired number of ms., f 34;
#X connect 0 0 23 0;
#X connect 1 0 23 0;
#X connect 2 0 4 0;
#X connect 3 0 2 0;
#X connect 4 0 1 0;
#X connect 4 0 1 1;
#X connect 4 1 0 0;
#X connect 4 1 0 1;
#X connect 5 0 24 0;
#X connect 6 0 14 0;
#X connect 7 0 2 1;
#X connect 8 0 10 0;
#X connect 9 0 8 0;
#X connect 9 0 26 0;
#X connect 10 0 12 0;
#X connect 10 1 13 0;
#X connect 12 0 5 1;
#X connect 13 0 12 1;
#X connect 14 0 16 0;
#X connect 15 0 14 1;
#X connect 17 0 11 0;
#X connect 23 0 5 0;
#X connect 24 0 6 0;
#X connect 26 0 27 0;
#X connect 26 0 29 0;
#X connect 26 0 30 0;
#X connect 27 0 28 0;
#X connect 28 0 26 1;
#X connect 29 0 18 0;
#X connect 29 0 39 0;
#X connect 32 0 17 0;
#X connect 33 0 24 1;
#X connect 34 0 28 1;
#X connect 36 0 37 0;
#X connect 38 0 39 0;
#X connect 39 0 36 0;
#X restore 28 92 pd fft-analysis;
#X obj 28 40 inlet~;
#X obj 28 164 outlet~;
#X connect 2 0 5 0;
#X connect 3 0 2 0;
#X connect 3 1 2 1;
#X connect 4 0 3 0;
