#N canvas 142 241 853 705 12;
#X obj 55 63 inlet~;
#X obj 166 63 inlet~;
#X obj 286 63 inlet~;
#X obj 459 57 inlet~;
#X obj 223 605 outlet~;
#X obj 58 349 *~;
#X obj 93 318 clip~ 1 1000;
#X obj 375 228 *~;
#X obj 312 155 samphold~;
#X obj 487 160 samphold~;
#X obj 204 160 samphold~;
#X obj 58 374 clip~ -0.5 0.5;
#X obj 58 396 cos~;
#X obj 402 259 +~;
#X obj 368 468 -~;
#X obj 350 501 *~;
#X obj 350 561 +~;
#X obj 58 419 +~ 1;
#X obj 49 169 -~ 0.5;
#X text 120 159 grain size;
#X obj 223 552 *~;
#X text 115 403 window shaped by raised cos;
#X text 304 176 weight for next block, f 11;
#X obj 368 292 +~;
#X text 445 207 phasor scanner in samples -/+ the read location, f 26;
#X text 135 17 fractional part of loc (blocks), f 16;
#X text 22 16 grain size (samples), f 11;
#X obj 93 294 /~;
#X text 477 550 We're adding this block to what's new in the next block \, fading it in using the fractional part of the read location, f 34;
#X text 412 469 << what's new in the next block?;
#X text 282 17 read loc (samples), f 14;
#X text 575 158 beginning of block;
#X text 598 294 << next block;
#X obj 368 396 +~ 1;
#X obj 461 495 +~ 1;
#X obj 368 316 /~;
#X obj 368 340 wrap~;
#X obj 368 364 *~;
#X obj 553 360 /~;
#X obj 553 384 wrap~;
#X obj 553 408 *~;
#X obj 448 296 r \$1-tune-tilde-hop;
#X obj 416 335 r \$1-tune-tilde-buf-dur-samps;
#X obj 601 379 r \$1-tune-tilde-buf-dur-samps;
#X obj 368 442 tabread4~ \$1-tune-tilde-nophase;
#X obj 461 525 tabread4~ \$1-tune-tilde-nophase;
#X obj 133 294 r \$1-tune-tilde-hop;
#X connect 0 0 10 0;
#X connect 1 0 8 0;
#X connect 2 0 9 0;
#X connect 3 0 9 1;
#X connect 3 0 8 1;
#X connect 3 0 10 1;
#X connect 3 0 18 0;
#X connect 5 0 11 0;
#X connect 6 0 5 1;
#X connect 7 0 13 0;
#X connect 8 0 15 0;
#X connect 9 0 13 1;
#X connect 10 0 7 1;
#X connect 10 0 27 0;
#X connect 11 0 12 0;
#X connect 12 0 17 0;
#X connect 13 0 23 0;
#X connect 13 0 38 0;
#X connect 14 0 15 1;
#X connect 15 0 16 0;
#X connect 16 0 20 1;
#X connect 17 0 20 0;
#X connect 18 0 5 0;
#X connect 18 0 7 0;
#X connect 20 0 4 0;
#X connect 23 0 35 0;
#X connect 27 0 6 0;
#X connect 33 0 44 0;
#X connect 34 0 45 0;
#X connect 35 0 36 0;
#X connect 36 0 37 0;
#X connect 37 0 33 0;
#X connect 38 0 39 0;
#X connect 39 0 40 0;
#X connect 40 0 34 0;
#X connect 41 0 23 1;
#X connect 42 0 35 1;
#X connect 42 0 37 1;
#X connect 43 0 38 1;
#X connect 43 0 40 1;
#X connect 44 0 14 0;
#X connect 45 0 14 1;
#X connect 45 0 16 1;
#X connect 46 0 27 1;
